<?xml version="1.0" encoding="UTF-8" standalone="no"?>
<!DOCTYPE svg PUBLIC "-//W3C//DTD SVG 1.1//EN" "http://www.w3.org/Graphics/SVG/1.1/DTD/svg11.dtd">
<!-- Created with Vectornator (http://vectornator.io/) -->
<svg height="100%" stroke-miterlimit="10" style="fill-rule:nonzero;clip-rule:evenodd;stroke-linecap:round;stroke-linejoin:round;" version="1.1" viewBox="0 0 81.5736 108.76" width="100%" xml:space="preserve" xmlns="http://www.w3.org/2000/svg" xmlns:vectornator="http://vectornator.io" xmlns:xlink="http://www.w3.org/1999/xlink">
<defs/>
<g id="레이어-1" vectornator:layerName="레이어 1">
<path d="M33.3198 1.32065C30.7248 1.81145 28.1308 2.58265 25.5368 3.63435C22.9428 4.68605 20.7688 5.77275 19.0168 6.89455C17.2638 8.01645 15.3708 9.52385 13.3368 11.4168C11.3038 13.3099 9.41079 15.5184 7.65779 18.0425C5.90479 20.5666 4.50279 23.1257 3.45079 25.7199C2.39979 28.314 1.62879 30.9082 1.13779 33.5024C0.64679 36.0966 0.40179 38.5505 0.40179 40.8642C0.40179 43.178 0.68179 45.7721 1.24279 48.6468C1.80379 51.5214 2.43479 53.9753 3.13579 56.0086C3.83679 58.0419 4.95879 60.6711 6.50079 63.8963C8.04379 67.121 9.48079 69.856 10.8128 72.1C12.1448 74.343 14.2488 77.498 17.1228 81.565C19.9978 85.631 22.5568 89.032 24.8008 91.766C27.0438 94.501 30.0938 97.901 33.9508 101.968C37.8068 106.034 40.0148 108.102 40.5758 108.173C41.1368 108.243 42.8548 106.84 45.7298 103.966C48.6038 101.091 51.5838 97.831 54.6688 94.185C57.7538 90.539 60.3128 87.349 62.3458 84.615C64.3798 81.88 66.6228 78.55 69.0768 74.624C71.5308 70.697 73.5288 67.121 75.0718 63.8963C76.6138 60.6711 77.7358 58.0419 78.4368 56.0086C79.1378 53.9753 79.7688 51.5214 80.3298 48.6468C80.8908 45.7721 81.1718 43.178 81.1718 40.8642C81.1718 38.5505 80.9258 36.0966 80.4348 33.5024C79.9448 30.9082 79.1728 28.314 78.1218 25.7199C77.0698 23.1257 75.9828 20.9522 74.8608 19.1994C73.7398 17.4465 72.2318 15.5535 70.3388 13.5202C68.4458 11.4869 66.2378 9.59395 63.7128 7.84115C61.1888 6.08835 58.6298 4.68605 56.0358 3.63435C53.4418 2.58265 50.8478 1.81145 48.2538 1.32065C45.6588 0.829848 43.1698 0.584448 40.7868 0.584448C38.4028 0.584448 35.9138 0.829848 33.3198 1.32065ZM41.7328 22.5648C43.2048 22.6349 44.4678 22.8102 45.5188 23.0906C46.5708 23.3711 47.6228 23.7567 48.6738 24.2475C49.7258 24.7383 50.8128 25.4043 51.9348 26.2457C53.0558 27.0871 53.9328 27.8583 54.5638 28.5594C55.1948 29.2606 55.8958 30.2772 56.6668 31.6093C57.4378 32.9415 58.0688 34.6592 58.5598 36.7626C59.0508 38.866 59.2608 40.5838 59.1908 41.9159C59.1208 43.2481 58.9458 44.475 58.6648 45.5968C58.3848 46.7187 57.9988 47.8054 57.5078 48.8571C57.0178 49.9088 56.3168 51.0306 55.4048 52.2225C54.4938 53.4144 53.6168 54.361 52.7758 55.0621C51.9348 55.7632 50.9528 56.4293 49.8308 57.0603C48.7088 57.6913 47.1318 58.2522 45.0988 58.743C43.0648 59.2338 41.3468 59.4441 39.9448 59.374C38.5428 59.3039 37.2808 59.1286 36.1588 58.8482C35.0368 58.5677 33.9508 58.1821 32.8988 57.6913C31.8468 57.2005 30.7248 56.4994 29.5328 55.5879C28.3418 54.6765 27.3948 53.8 26.6938 52.9587C25.9928 52.1173 25.3268 51.1358 24.6958 50.014C24.0648 48.8921 23.5038 47.2796 23.0128 45.1762C22.5218 43.0728 22.3118 41.355 22.3818 40.0229C22.4518 38.6907 22.6268 37.4638 22.9078 36.3419C23.1878 35.2201 23.5738 34.1334 24.0648 33.0817C24.5548 32.03 25.2568 30.9082 26.1678 29.7163C27.0798 28.5244 27.9558 27.5778 28.7968 26.8767C29.6388 26.1756 30.6198 25.5095 31.7418 24.8785C32.8638 24.2475 34.4408 23.6866 36.4748 23.1958C38.5078 22.705 40.2608 22.4947 41.7328 22.5648Z" fill="#000000" fill-rule="nonzero" opacity="1" stroke="none" vectornator:layerName="곡선 1"/>
</g>
</svg>
