<?xml version="1.0" encoding="UTF-8" standalone="no"?>
<!DOCTYPE svg PUBLIC "-//W3C//DTD SVG 1.1//EN" "http://www.w3.org/Graphics/SVG/1.1/DTD/svg11.dtd">
<!-- Created with Vectornator (http://vectornator.io/) -->
<svg height="100%" stroke-miterlimit="10" style="fill-rule:nonzero;clip-rule:evenodd;stroke-linecap:round;stroke-linejoin:round;" version="1.1" viewBox="0 0 472.565 452.814" width="100%" xml:space="preserve" xmlns="http://www.w3.org/2000/svg" xmlns:vectornator="http://vectornator.io" xmlns:xlink="http://www.w3.org/1999/xlink">
<defs/>
<g id="레이어-1" vectornator:layerName="레이어 1">
<g opacity="1" vectornator:layerName="그룹 1">
<path d="M200.875 52.4062C195.125 52.5729 189.667 52.9896 184.5 53.6562C174.167 54.9896 162 57.9896 148 62.6562C134 67.3229 122.167 72.4896 112.5 78.1562C102.833 83.8229 93.6667 90.3229 85 97.6562C76.3333 104.99 67.6667 114.156 59 125.156C50.3333 136.156 43 147.823 37 160.156C31 172.49 26.5 184.656 23.5 196.656C20.5 208.656 18.6667 220.823 18 233.156C17.3333 245.49 17.6667 256.99 19 267.656C20.3333 278.323 23.5 290.99 28.5 305.656C33.5 320.323 39.6667 333.49 47 345.156C54.3333 356.823 62.5 367.323 71.5 376.656C80.5 385.99 89.5 393.823 98.5 400.156C107.5 406.49 117.333 412.156 128 417.156C138.667 422.156 150 426.156 162 429.156C174 432.156 186.333 433.99 199 434.656C211.667 435.323 223.167 434.99 233.5 433.656C243.833 432.323 256 429.323 270 424.656C284 419.99 297.167 413.823 309.5 406.156C321.833 398.49 332.667 390.156 342 381.156C351.333 372.156 359.167 363.156 365.5 354.156C371.833 345.156 377.5 335.323 382.5 324.656C387.5 313.99 391.5 302.656 394.5 290.656C397.5 278.656 399.333 266.49 400 254.156C400.667 241.823 400.333 230.323 399 219.656C397.667 208.99 394.667 196.656 390 182.656C385.333 168.656 380.167 156.823 374.5 147.156C368.833 137.49 362.333 128.323 355 119.656C347.667 110.99 338.5 102.323 327.5 93.6562C316.5 84.9896 304.833 77.6563 292.5 71.6562C280.167 65.6562 268 61.1563 256 58.1562C244 55.1562 231.667 53.3229 219 52.6562C212.667 52.3229 206.625 52.2396 200.875 52.4062Z" fill="#ffffff" fill-rule="nonzero" opacity="1" stroke="none" vectornator:layerName="path"/>
<path d="M209 35.6435C197 35.6435 185.167 36.6435 173.5 38.6435C161.833 40.6435 149.333 44.1435 136 49.1435C122.667 54.1435 109.333 60.9768 96 69.6435C82.6667 78.3101 71.3333 87.3101 62 96.6435C52.6667 105.977 43.6667 117.31 35 130.643C26.3333 143.977 19.8333 156.143 15.5 167.143C11.1667 178.143 7.66667 190.643 5 204.643C2.33333 218.643 1 231.643 1 243.643C1 255.643 2 267.477 4 279.143C6 290.81 9.5 303.31 14.5 316.643C19.5 329.977 26.3333 343.31 35 356.643C43.6667 369.977 52.6667 381.31 62 390.643C71.3333 399.977 82.6667 408.977 96 417.643C109.333 426.31 121.5 432.81 132.5 437.143C143.5 441.477 154.5 444.81 165.5 447.143C176.5 449.477 189.333 450.81 204 451.143C218.667 451.477 232 450.643 244 448.643C256 446.643 268.667 443.143 282 438.143C295.333 433.143 308.667 426.31 322 417.643C335.333 408.977 346.667 399.977 356 390.643C365.333 381.31 374.333 369.977 383 356.643C391.667 343.31 398.167 331.143 402.5 320.143C406.833 309.143 410.167 298.143 412.5 287.143C414.833 276.143 416.167 263.31 416.5 248.643C416.833 233.977 416 220.643 414 208.643C412 196.643 408.5 183.977 403.5 170.643C398.5 157.31 391.667 143.977 383 130.643C374.333 117.31 365.333 105.977 356 96.6435C346.667 87.3101 335.333 78.3101 322 69.6435C308.667 60.9768 296.5 54.4768 285.5 50.1435C274.5 45.8101 262 42.3101 248 39.6435C234 36.9768 221 35.6435 209 35.6435ZM200.875 52.3935C206.625 52.2268 212.667 52.3101 219 52.6435C231.667 53.3101 244 55.1435 256 58.1435C268 61.1435 280.167 65.6435 292.5 71.6435C304.833 77.6435 316.5 84.9768 327.5 93.6435C338.5 102.31 347.667 110.977 355 119.643C362.333 128.31 368.833 137.477 374.5 147.143C380.167 156.81 385.333 168.643 390 182.643C394.667 196.643 397.667 208.977 399 219.643C400.333 230.31 400.667 241.81 400 254.143C399.333 266.477 397.5 278.643 394.5 290.643C391.5 302.643 387.5 313.977 382.5 324.643C377.5 335.31 371.833 345.143 365.5 354.143C359.167 363.143 351.333 372.143 342 381.143C332.667 390.143 321.833 398.477 309.5 406.143C297.167 413.81 284 419.977 270 424.643C256 429.31 243.833 432.31 233.5 433.643C223.167 434.977 211.667 435.31 199 434.643C186.333 433.977 174 432.143 162 429.143C150 426.143 138.667 422.143 128 417.143C117.333 412.143 107.5 406.477 98.5 400.143C89.5 393.81 80.5 385.977 71.5 376.643C62.5 367.31 54.3333 356.81 47 345.143C39.6667 333.477 33.5 320.31 28.5 305.643C23.5 290.977 20.3333 278.31 19 267.643C17.6667 256.977 17.3333 245.477 18 233.143C18.6667 220.81 20.5 208.643 23.5 196.643C26.5 184.643 31 172.477 37 160.143C43 147.81 50.3333 136.143 59 125.143C67.6667 114.143 76.3333 104.977 85 97.6435C93.6667 90.3101 102.833 83.8101 112.5 78.1435C122.167 72.4768 134 67.3101 148 62.6435C162 57.9768 174.167 54.9768 184.5 53.6435C189.667 52.9768 195.125 52.5601 200.875 52.3935Z" fill="#000000" fill-rule="nonzero" opacity="1" stroke="none" vectornator:layerName="path"/>
<path d="M253.2 137.152C246.267 137.152 240.49 138.308 235.868 140.619C231.245 142.931 227.779 145.531 225.468 148.418C223.158 151.307 221.135 155.063 219.402 159.684C217.669 164.306 217.092 169.506 217.669 175.283C218.246 181.061 219.402 185.682 221.135 189.148C222.869 192.615 226.625 196.371 232.401 200.414C238.178 204.459 245.69 206.193 254.933 205.614C264.176 205.037 271.688 201.57 277.465 195.215C283.241 188.861 286.131 181.061 286.131 171.816C286.131 162.573 284.108 155.351 280.064 150.151C276.021 144.952 272.265 141.485 268.799 139.752C265.332 138.019 260.133 137.152 253.2 137.152Z" fill="#fe9796" fill-rule="nonzero" opacity="1" stroke="none" vectornator:layerName="곡선"/>
<path d="M163.497 137.789C156.77 138.006 151.022 139.849 146.249 143.32C139.885 147.949 135.835 152.288 134.1 156.337C132.364 160.388 131.496 165.305 131.496 171.09C131.496 176.876 132.364 181.793 134.1 185.842C135.835 189.893 139.017 193.942 143.646 197.991C148.274 202.042 155.217 204.356 164.473 204.934C173.729 205.514 180.383 204.646 184.432 202.33C188.481 200.017 192.242 196.256 195.714 191.049C199.185 185.842 200.92 179.19 200.92 171.09C200.92 162.991 198.317 155.759 193.11 149.395C187.903 143.032 180.383 139.271 170.547 138.113C168.088 137.825 165.738 137.716 163.497 137.789Z" fill="#fe9796" fill-rule="nonzero" opacity="1" stroke="none" vectornator:layerName="path"/>
<path d="M315.193 196.865C312.24 196.702 309.616 196.948 307.319 197.604C302.726 198.917 298.461 201.541 294.524 205.478C290.587 209.415 287.963 214.665 286.65 221.226C285.337 227.789 286.978 235.005 291.571 242.879C296.163 250.753 303.053 255.348 312.24 256.659C321.427 257.972 329.301 256.004 335.862 250.753C342.423 245.505 346.034 238.942 346.689 231.068C347.345 223.194 345.705 216.305 341.768 210.399C337.831 204.493 332.254 200.556 325.036 198.588C321.427 197.604 318.146 197.031 315.193 196.865Z" fill="#fe9796" fill-rule="nonzero" opacity="1" stroke="none" vectornator:layerName="path"/>
<path d="M204.83 213.378C200.689 213.477 196.745 213.821 192.998 214.413C185.505 215.596 178.602 217.569 172.293 220.329C165.983 223.091 160.855 225.851 156.911 228.611C152.968 231.373 148.431 235.71 143.305 241.626C138.178 247.542 134.233 253.064 131.473 258.191C128.712 263.319 126.149 270.812 123.782 280.671C121.416 290.532 120.43 299.208 120.824 306.701C121.218 314.195 122.401 320.505 124.374 325.632C126.346 330.76 128.317 334.506 130.29 336.872C132.262 339.239 135.22 341.409 139.164 343.38C143.107 345.352 147.84 346.338 153.362 346.338C158.884 346.338 168.151 344.169 181.166 339.83C194.181 335.493 204.436 333.52 211.929 333.914C219.422 334.31 228.691 336.478 239.734 340.422C250.777 344.367 259.059 346.338 264.581 346.338C270.103 346.338 274.244 345.746 277.004 344.563C279.764 343.38 282.722 341.211 285.878 338.056C289.034 334.901 291.794 329.379 294.16 321.491C296.527 313.604 297.316 304.926 296.527 295.461C295.737 285.996 293.766 277.122 290.611 268.839C287.455 260.557 283.906 253.656 279.962 248.134C276.019 242.613 270.891 237.289 264.581 232.161C258.271 227.034 251.172 222.893 243.283 219.737C235.395 216.583 226.917 214.611 217.845 213.821C213.31 213.427 208.971 213.28 204.83 213.378Z" fill="#fe9796" fill-rule="nonzero" opacity="1" stroke="none" vectornator:layerName="path"/>
<path d="M102.784 195.953C97.4949 196.078 91.8294 197.903 85.7862 201.428C77.7285 206.13 73.0283 213.18 71.6853 222.58C70.3423 231.981 72.3567 240.038 77.7285 246.752C83.1004 253.469 90.1508 257.161 98.8799 257.832C107.608 258.505 115.332 255.483 122.046 248.767C128.76 242.053 132.118 234.666 132.118 226.608C132.118 218.551 129.767 211.837 125.067 206.464C120.368 201.094 114.659 197.736 107.945 196.392C106.267 196.058 104.544 195.911 102.784 195.953Z" fill="#fe9796" fill-rule="nonzero" opacity="1" stroke="none" vectornator:layerName="path"/>
<path d="M299.563 89.9217C299.563 44.6776 336.355 8 381.742 8C427.128 8 463.921 44.6776 463.921 89.9217C463.921 135.166 427.128 171.843 381.742 171.843C336.355 171.843 299.563 135.166 299.563 89.9217Z" fill="#ffffff" fill-rule="nonzero" opacity="1" stroke="#000000" stroke-linecap="butt" stroke-linejoin="round" stroke-width="15" vectornator:layerName="타원 1"/>
<path d="M374.275 36.8626C371.68 37.3534 369.086 38.1246 366.492 39.1763C363.898 40.228 361.724 41.3147 359.972 42.4365C358.219 43.5584 356.326 45.0658 354.292 46.9588C352.259 48.8519 350.366 51.0604 348.613 53.5845C346.86 56.1086 345.458 58.6677 344.406 61.2619C343.355 63.856 342.584 66.4502 342.093 69.0444C341.602 71.6386 341.357 74.0925 341.357 76.4062C341.357 78.72 341.637 81.3141 342.198 84.1888C342.759 87.0634 343.39 89.5173 344.091 91.5506C344.792 93.5839 345.914 96.2131 347.456 99.4383C348.999 102.663 350.436 105.398 351.768 107.642C353.1 109.885 355.204 113.04 358.078 117.107C360.953 121.173 363.512 124.574 365.756 127.308C367.999 130.043 371.049 133.443 374.906 137.51C378.762 141.576 380.97 143.644 381.531 143.715C382.092 143.785 383.81 142.382 386.685 139.508C389.559 136.633 392.539 133.373 395.624 129.727C398.709 126.081 401.268 122.891 403.301 120.157C405.335 117.422 407.578 114.092 410.032 110.166C412.486 106.239 414.484 102.663 416.027 99.4383C417.569 96.2131 418.691 93.5839 419.392 91.5506C420.093 89.5173 420.724 87.0634 421.285 84.1888C421.846 81.3141 422.127 78.72 422.127 76.4062C422.127 74.0925 421.881 71.6386 421.39 69.0444C420.9 66.4502 420.128 63.856 419.077 61.2619C418.025 58.6677 416.938 56.4942 415.816 54.7414C414.695 52.9885 413.187 51.0955 411.294 49.0622C409.401 47.0289 407.193 45.1359 404.668 43.3831C402.144 41.6303 399.585 40.228 396.991 39.1763C394.397 38.1246 391.803 37.3534 389.209 36.8626C386.614 36.3718 384.125 36.1264 381.742 36.1264C379.358 36.1264 376.869 36.3718 374.275 36.8626ZM382.688 58.1068C384.16 58.1769 385.423 58.3522 386.474 58.6326C387.526 58.9131 388.578 59.2987 389.629 59.7895C390.681 60.2803 391.768 60.9463 392.89 61.7877C394.011 62.6291 394.888 63.4003 395.519 64.1014C396.15 64.8026 396.851 65.8192 397.622 67.1513C398.393 68.4835 399.024 70.2012 399.515 72.3046C400.006 74.408 400.216 76.1258 400.146 77.4579C400.076 78.7901 399.901 80.017 399.62 81.1388C399.34 82.2607 398.954 83.3474 398.463 84.3991C397.973 85.4508 397.272 86.5726 396.36 87.7645C395.449 88.9564 394.572 89.903 393.731 90.6041C392.89 91.3052 391.908 91.9713 390.786 92.6023C389.664 93.2333 388.087 93.7942 386.054 94.285C384.02 94.7758 382.302 94.9861 380.9 94.916C379.498 94.8459 378.236 94.6706 377.114 94.3902C375.992 94.1097 374.906 93.7241 373.854 93.2333C372.802 92.7425 371.68 92.0414 370.488 91.1299C369.297 90.2185 368.35 89.342 367.649 88.5007C366.948 87.6593 366.282 86.6778 365.651 85.556C365.02 84.4341 364.459 82.8216 363.968 80.7182C363.477 78.6148 363.267 76.897 363.337 75.5649C363.407 74.2327 363.582 73.0058 363.863 71.8839C364.143 70.7621 364.529 69.6754 365.02 68.6237C365.51 67.572 366.212 66.4502 367.123 65.2583C368.035 64.0664 368.911 63.1198 369.752 62.4187C370.594 61.7176 371.575 61.0515 372.697 60.4205C373.819 59.7895 375.396 59.2286 377.43 58.7378C379.463 58.247 381.216 58.0367 382.688 58.1068Z" fill="#000000" fill-rule="nonzero" opacity="1" stroke="none" vectornator:layerName="곡선 1"/>
</g>
</g>
</svg>
