<?xml version="1.0" encoding="UTF-8" standalone="no"?>
<!DOCTYPE svg PUBLIC "-//W3C//DTD SVG 1.1//EN" "http://www.w3.org/Graphics/SVG/1.1/DTD/svg11.dtd">
<!-- Created with Vectornator (http://vectornator.io/) -->
<svg height="100%" stroke-miterlimit="10" style="fill-rule:nonzero;clip-rule:evenodd;stroke-linecap:round;stroke-linejoin:round;" version="1.1" viewBox="0 0 472.565 452.814" width="100%" xml:space="preserve" xmlns="http://www.w3.org/2000/svg" xmlns:vectornator="http://vectornator.io" xmlns:xlink="http://www.w3.org/1999/xlink">
<defs/>
<g id="레이어-1" vectornator:layerName="레이어 1">
<g opacity="1" vectornator:layerName="그룹 1">
<path d="M236.515 0.850678C223.489 0.850678 210.643 1.9362 197.979 4.10725C185.314 6.2783 171.745 10.0776 157.272 15.5053C142.798 20.9329 128.324 28.3506 113.851 37.7585C99.377 47.1664 87.0744 56.9361 76.9428 67.0677C66.8112 77.1993 57.0415 89.5019 47.6336 103.976C38.2257 118.449 31.1698 131.656 26.4659 143.597C21.7619 155.538 17.9626 169.107 15.0679 184.304C12.1731 199.502 10.7258 213.614 10.7258 226.64C10.7258 239.666 11.8113 252.512 13.9823 265.176C16.1534 277.84 19.9527 291.409 25.3804 305.883C30.808 320.357 38.2257 334.83 47.6336 349.304C57.0415 363.778 66.8112 376.08 76.9428 386.212C87.0744 396.344 99.377 406.113 113.851 415.521C128.324 424.929 141.532 431.985 153.472 436.689C165.413 441.393 177.354 445.011 189.295 447.544C201.235 450.077 215.166 451.524 231.087 451.886C247.008 452.248 261.482 451.343 274.508 449.172C287.535 447.001 301.285 443.202 315.758 437.774C330.232 432.347 344.706 424.929 359.179 415.521C373.653 406.113 385.956 396.344 396.087 386.212C406.219 376.08 415.988 363.778 425.396 349.304C434.804 334.83 441.86 321.623 446.564 309.682C451.268 297.742 454.886 285.801 457.419 273.86C459.952 261.919 461.399 247.988 461.761 232.067C462.123 216.146 461.219 201.673 459.048 188.646C456.876 175.62 453.077 161.87 447.65 147.397C442.222 132.923 434.804 118.449 425.396 103.976C415.988 89.5019 406.219 77.1993 396.087 67.0677C385.956 56.9361 373.653 47.1664 359.179 37.7585C344.706 28.3506 331.498 21.2947 319.558 16.5908C307.617 11.8868 294.048 8.08751 278.85 5.19278C263.653 2.29804 249.541 0.850678 236.515 0.850678ZM227.695 19.0332C233.937 18.8523 240.495 18.9428 247.37 19.3046C261.12 20.0283 274.508 22.0184 287.535 25.275C300.561 28.5316 313.768 33.4164 327.156 39.9296C340.544 46.4427 353.209 54.4032 365.15 63.8111C377.09 73.219 387.041 82.6269 395.002 92.0348C402.962 101.443 410.018 111.393 416.169 121.887C422.321 132.38 427.929 145.225 432.995 160.423C438.061 175.62 441.317 189.008 442.765 200.587C444.212 212.166 444.574 224.65 443.85 238.038C443.126 251.426 441.136 264.633 437.88 277.66C434.623 290.686 430.281 302.988 424.853 314.567C419.426 326.146 413.275 336.821 406.4 346.59C399.525 356.36 391.021 366.13 380.89 375.9C370.758 385.669 358.998 394.715 345.61 403.038C332.222 411.36 317.929 418.054 302.732 423.12C287.535 428.186 274.327 431.442 263.11 432.89C251.893 434.337 239.41 434.699 225.66 433.975C211.91 433.251 198.522 431.261 185.495 428.005C172.469 424.748 160.166 420.406 148.587 414.978C137.008 409.551 126.334 403.399 116.564 396.524C106.795 389.649 97.025 381.146 87.2553 371.015C77.4855 360.883 68.6204 349.485 60.6599 336.821C52.6994 324.156 46.0053 309.863 40.5777 293.942C35.1501 278.021 31.7126 264.271 30.2652 252.692C28.8179 241.114 28.456 228.63 29.1797 215.242C29.9034 201.854 31.8935 188.646 35.1501 175.62C38.4067 162.594 43.2915 149.387 49.8047 135.999C56.3178 122.61 64.2783 109.946 73.6862 98.0051C83.0941 86.0644 92.502 76.1137 101.91 68.1532C111.318 60.1927 121.268 53.1368 131.762 46.9855C142.255 40.8342 155.101 35.2256 170.298 30.1598C185.495 25.0941 198.702 21.8375 209.92 20.3901C215.528 19.6664 221.453 19.2141 227.695 19.0332Z" fill="#fe9796" fill-rule="nonzero" opacity="1" stroke="none" vectornator:layerName="path"/>
<path d="M228.116 9.28596C221.547 9.47636 215.311 9.95236 209.409 10.714C197.604 12.2372 183.705 15.6644 167.711 20.9956C151.718 26.3268 138.199 32.2292 127.156 38.7029C116.113 45.1765 105.641 52.6021 95.7397 60.9798C85.8389 69.3574 75.9381 79.8294 66.0372 92.3959C56.1364 104.962 47.7588 118.29 40.9043 132.38C34.0499 146.47 28.9091 160.369 25.4819 174.078C22.0547 187.787 19.9603 201.686 19.1987 215.776C18.4371 229.865 18.8179 243.003 20.3411 255.188C21.8643 267.374 25.4819 281.845 31.1939 298.6C36.9059 315.355 43.9507 330.397 52.3284 343.725C60.706 357.053 70.0356 369.048 80.3173 379.711C90.5989 390.373 100.881 399.322 111.162 406.557C121.444 413.792 132.677 420.266 144.863 425.978C157.049 431.69 169.996 436.26 183.705 439.687C197.414 443.114 211.503 445.208 225.974 445.97C240.444 446.732 253.582 446.351 265.387 444.828C277.192 443.304 291.091 439.877 307.085 434.546C323.078 429.215 338.12 422.17 352.21 413.411C366.299 404.653 378.675 395.133 389.338 384.851C400 374.57 408.949 364.288 416.184 354.006C423.419 343.725 429.893 332.491 435.605 320.306C441.317 308.12 445.887 295.173 449.314 281.464C452.741 267.755 454.835 253.856 455.597 239.766C456.359 225.676 455.978 212.539 454.455 200.353C452.931 188.167 449.504 174.078 444.173 158.084C438.842 142.09 432.939 128.572 426.466 117.529C419.992 106.486 412.567 96.0135 404.189 86.1126C395.811 76.2118 385.339 66.311 372.773 56.4101C360.206 46.5093 346.878 38.1317 332.789 31.2772C318.699 24.4228 304.8 19.282 291.091 15.8548C277.382 12.4276 263.292 10.3332 248.822 9.57156C241.587 9.19076 234.685 9.09556 228.116 9.28596Z" fill="#fe9796" fill-rule="nonzero" opacity="1" stroke="none" vectornator:layerName="path"/>
<path d="M285.364 108.86C279.574 108.499 274.508 109.041 270.166 110.489C265.824 111.936 261.482 114.469 257.14 118.087C252.798 121.706 249.36 126.229 246.827 131.656C244.295 137.084 243.028 142.693 243.028 148.482C243.028 154.272 243.933 159.337 245.742 163.679C247.551 168.022 250.084 172.002 253.341 175.62C256.597 179.239 261.12 182.314 266.91 184.847C272.699 187.38 277.946 188.646 282.65 188.646C287.354 188.646 292.419 187.561 297.847 185.39C303.275 183.219 307.617 180.505 310.873 177.248C314.13 173.992 316.844 170.012 319.015 165.308C321.186 160.604 322.452 155.9 322.814 151.196C323.176 146.492 322.452 141.426 320.643 135.999C318.834 130.571 316.12 125.867 312.502 121.887C308.883 117.906 304.903 114.831 300.561 112.66C296.219 110.489 291.153 109.222 285.364 108.86ZM283.193 126.772C287.535 126.772 290.791 127.314 292.962 128.4C295.133 129.485 297.485 131.656 300.018 134.913C302.551 138.17 303.817 142.693 303.817 148.482C303.817 154.272 302.008 159.156 298.39 163.137C294.771 167.117 290.067 169.288 284.278 169.65C278.489 170.012 273.785 168.926 270.166 166.393C266.548 163.86 264.196 161.508 263.11 159.337C262.025 157.166 261.301 154.272 260.939 150.653C260.577 147.035 260.939 143.778 262.025 140.883C263.11 137.989 264.377 135.637 265.824 133.827C267.271 132.018 269.443 130.39 272.337 128.943C275.232 127.495 278.85 126.772 283.193 126.772Z" fill="#ffffff" fill-rule="nonzero" opacity="1" stroke="none" vectornator:layerName="곡선"/>
<path d="M284.069 122.412C278.64 122.412 274.116 123.317 270.497 125.126C266.878 126.936 264.164 128.972 262.354 131.234C260.545 133.495 258.961 136.436 257.604 140.055C256.247 143.674 255.795 147.746 256.247 152.27C256.699 156.794 257.604 160.413 258.961 163.127C260.319 165.841 263.259 168.782 267.783 171.949C272.307 175.115 278.188 176.473 285.426 176.02C292.664 175.568 298.546 172.853 303.069 167.877C307.593 162.901 309.855 156.794 309.855 149.555C309.855 142.317 308.272 136.662 305.105 132.591C301.938 128.519 298.998 125.805 296.284 124.448C293.569 123.091 289.498 122.412 284.069 122.412Z" fill="#ffffff" fill-rule="nonzero" opacity="1" stroke="none" vectornator:layerName="곡선"/>
<path d="M190.38 108.318C186.4 108.318 181.877 109.222 176.811 111.031C171.745 112.841 167.222 115.554 163.242 119.173C159.262 122.791 156.186 126.952 154.015 131.656C151.844 136.36 150.578 141.064 150.216 145.768C149.854 150.472 150.578 155.538 152.387 160.966C154.196 166.393 157.091 171.278 161.071 175.62C165.051 179.962 169.755 183.219 175.183 185.39C180.61 187.561 185.676 188.646 190.38 188.646C195.084 188.646 199.788 187.742 204.492 185.933C209.196 184.123 213.357 181.591 216.975 178.334C220.594 175.077 223.67 170.735 226.202 165.308C228.735 159.88 230.002 154.272 230.002 148.482C230.002 142.693 228.735 137.084 226.202 131.656C223.67 126.229 220.594 121.887 216.975 118.63C213.357 115.374 209.015 112.841 203.949 111.031C198.883 109.222 194.36 108.318 190.38 108.318ZM188.141 127.654C189.543 127.608 191.013 127.676 192.551 127.857C198.702 128.581 203.406 130.933 206.663 134.913C209.92 138.893 211.548 143.416 211.548 148.482C211.548 153.548 210.462 157.709 208.291 160.966C206.12 164.222 203.768 166.574 201.235 168.022C198.702 169.469 194.541 170.012 188.752 169.65C182.962 169.288 178.62 167.841 175.726 165.308C172.831 162.775 170.841 160.242 169.755 157.709C168.67 155.176 168.127 152.1 168.127 148.482C168.127 144.864 168.67 141.788 169.755 139.255C170.841 136.722 173.374 134.008 177.354 131.114C180.339 128.943 183.935 127.789 188.141 127.654Z" fill="#ffffff" fill-rule="nonzero" opacity="1" stroke="none" vectornator:layerName="path"/>
<path d="M189.317 119.026C183.274 119.221 178.109 120.878 173.821 123.996C168.103 128.155 164.464 132.053 162.905 135.692C161.345 139.33 160.566 143.749 160.566 148.947C160.566 154.145 161.345 158.563 162.905 162.201C164.464 165.84 167.323 169.479 171.482 173.117C175.64 176.756 181.877 178.835 190.194 179.355C198.511 179.874 204.489 179.095 208.127 177.016C211.766 174.936 215.144 171.558 218.263 166.88C221.382 162.201 222.941 156.224 222.941 148.947C222.941 141.669 220.602 135.172 215.924 129.454C211.246 123.736 204.489 120.358 195.652 119.318C193.443 119.058 191.331 118.961 189.317 119.026Z" fill="#ffffff" fill-rule="nonzero" opacity="1" stroke="none" vectornator:layerName="path"/>
<path d="M353.209 173.449C348.505 173.449 344.525 173.992 341.268 175.077C338.012 176.163 334.574 178.153 330.956 181.048C327.337 183.943 324.442 187.38 322.271 191.36C320.1 195.341 318.834 200.406 318.472 206.558C318.11 212.709 318.834 217.956 320.643 222.298C322.452 226.64 324.985 230.439 328.242 233.696C331.498 236.952 335.479 239.485 340.183 241.294C344.886 243.104 349.952 243.827 355.38 243.465C360.808 243.104 365.331 242.018 368.949 240.209C372.567 238.4 376.186 235.324 379.804 230.982C383.423 226.64 385.775 222.66 386.86 219.041C387.946 215.423 388.307 211.081 387.946 206.015C387.584 200.949 386.498 196.607 384.689 192.989C382.88 189.37 380.528 186.114 377.633 183.219C374.738 180.324 371.12 177.972 366.778 176.163C362.436 174.354 357.913 173.449 353.209 173.449ZM352.123 191.496C353.752 191.586 355.561 191.903 357.551 192.446C361.531 193.531 364.607 195.702 366.778 198.959C368.949 202.216 369.854 206.015 369.492 210.357C369.13 214.699 367.14 218.317 363.521 221.212C359.903 224.107 355.561 225.192 350.495 224.469C345.429 223.745 341.63 221.212 339.097 216.87C336.564 212.528 335.66 208.548 336.383 204.929C337.107 201.311 338.554 198.416 340.725 196.245C342.896 194.074 345.248 192.627 347.781 191.903C349.048 191.541 350.495 191.406 352.123 191.496Z" fill="#ffffff" fill-rule="nonzero" opacity="1" stroke="none" vectornator:layerName="path"/>
<path d="M352.293 186.844C350.207 186.728 348.353 186.902 346.73 187.365C343.485 188.292 340.472 190.147 337.691 192.928C334.909 195.71 333.055 199.418 332.128 204.054C331.201 208.69 332.36 213.789 335.605 219.352C338.85 224.915 343.717 228.16 350.207 229.087C356.697 230.014 362.26 228.623 366.896 224.915C371.532 221.206 374.081 216.57 374.545 211.008C375.008 205.445 373.849 200.577 371.068 196.405C368.287 192.233 364.346 189.451 359.247 188.061C356.697 187.365 354.379 186.96 352.293 186.844Z" fill="#ffffff" fill-rule="nonzero" opacity="1" stroke="none" vectornator:layerName="path"/>
<path d="M232.163 196.646C227.846 196.75 223.735 197.109 219.829 197.726C212.017 198.96 204.822 201.014 198.244 203.892C191.666 206.772 186.32 209.65 182.208 212.528C178.097 215.406 173.369 219.928 168.024 226.096C162.679 232.262 158.567 238.018 155.689 243.364C152.811 248.708 150.139 256.52 147.672 266.799C145.205 277.078 144.177 286.123 144.588 293.935C144.999 301.747 146.233 308.325 148.289 313.671C150.344 319.015 152.4 322.922 154.456 325.388C156.512 327.856 159.595 330.117 163.707 332.173C167.818 334.229 172.752 335.256 178.508 335.256C184.264 335.256 193.927 332.995 207.495 328.473C221.063 323.949 231.753 321.893 239.565 322.305C247.376 322.715 257.038 324.978 268.551 329.088C280.063 333.2 288.697 335.256 294.453 335.256C300.209 335.256 304.526 334.639 307.404 333.405C310.282 332.173 313.367 329.912 316.655 326.622C319.945 323.332 322.823 317.576 325.289 309.354C327.757 301.13 328.579 292.085 327.757 282.218C326.935 272.35 324.879 263.099 321.589 254.465C318.299 245.83 314.599 238.635 310.488 232.879C306.377 227.123 301.031 221.572 294.453 216.228C287.875 210.882 280.474 206.565 272.251 203.277C264.028 199.987 255.188 197.931 245.731 197.109C241.004 196.697 236.48 196.543 232.163 196.646Z" fill="#ffffff" fill-rule="nonzero" opacity="1" stroke="none" vectornator:layerName="path"/>
<path d="M121.992 173.992C115.841 173.63 110.594 174.354 106.252 176.163C101.91 177.972 97.9296 180.867 94.3112 184.847C90.6928 188.827 88.1599 192.989 86.7125 197.331C85.2651 201.673 84.7224 206.377 85.0842 211.442C85.4461 216.508 86.5316 220.85 88.3408 224.469C90.15 228.087 92.8638 231.525 96.4822 234.781C100.101 238.038 104.081 240.39 108.423 241.837C112.765 243.285 117.469 243.827 122.535 243.465C127.601 243.104 131.762 242.199 135.018 240.752C138.275 239.304 141.532 236.952 144.788 233.696C148.045 230.439 150.578 226.64 152.387 222.298C154.196 217.956 155.101 213.433 155.101 208.729C155.101 204.025 154.558 200.044 153.472 196.788C152.387 193.531 150.397 190.094 147.502 186.475C144.607 182.857 141.17 179.962 137.189 177.791C133.209 175.62 128.143 174.354 121.992 173.992ZM120.839 191.666C121.789 191.643 122.716 191.722 123.62 191.903C127.239 192.627 130.314 194.436 132.847 197.331C135.38 200.225 136.647 203.844 136.647 208.186C136.647 212.528 134.837 216.508 131.219 220.127C127.601 223.745 123.439 225.373 118.735 225.012C114.032 224.65 110.232 222.66 107.337 219.041C104.443 215.423 103.357 211.081 104.081 206.015C104.805 200.949 107.337 197.15 111.68 194.617C114.936 192.717 117.989 191.733 120.839 191.666Z" fill="#ffffff" fill-rule="nonzero" opacity="1" stroke="none" vectornator:layerName="path"/>
<path d="M120.782 186.814C117.15 186.9 113.259 188.154 109.109 190.575C103.575 193.803 100.347 198.645 99.4252 205.101C98.5029 211.557 99.8863 217.09 103.575 221.702C107.265 226.313 112.107 228.85 118.101 229.311C124.096 229.772 129.399 227.697 134.011 223.085C138.622 218.474 140.928 213.401 140.928 207.868C140.928 202.334 139.314 197.723 136.086 194.033C132.858 190.344 128.938 188.039 124.327 187.116C123.174 186.886 121.992 186.785 120.782 186.814Z" fill="#ffffff" fill-rule="nonzero" opacity="1" stroke="none" vectornator:layerName="path"/>
</g>
</g>
</svg>
