<?xml version="1.0" encoding="UTF-8" standalone="no"?>
<!DOCTYPE svg PUBLIC "-//W3C//DTD SVG 1.1//EN" "http://www.w3.org/Graphics/SVG/1.1/DTD/svg11.dtd">
<!-- Created with Vectornator (http://vectornator.io/) -->
<svg height="100%" stroke-miterlimit="10" style="fill-rule:nonzero;clip-rule:evenodd;stroke-linecap:round;stroke-linejoin:round;" version="1.1" viewBox="0 0 1034.23 760.059" width="100%" xml:space="preserve" xmlns="http://www.w3.org/2000/svg" xmlns:vectornator="http://vectornator.io" xmlns:xlink="http://www.w3.org/1999/xlink">
<defs/>
<g id="레이어-1" vectornator:layerName="레이어 1">
<path d="M683.576 173.029C677.576 173.029 670.909 174.196 663.576 176.529C656.243 178.863 646.076 183.863 633.076 191.529C620.076 199.196 608.909 206.529 599.576 213.529C590.243 220.529 583.743 225.863 580.076 229.529C576.409 233.196 574.076 236.696 573.076 240.029C572.576 241.696 572.076 243.363 571.576 245.029C569.576 244.196 567.576 243.363 565.576 242.529C561.576 240.863 555.909 239.363 548.576 238.029C541.243 236.696 533.909 235.696 526.576 235.029C519.243 234.363 510.409 234.196 500.076 234.529C489.743 234.863 475.743 236.696 458.076 240.029C440.409 243.363 426.076 247.029 415.076 251.029C404.076 255.029 396.409 258.196 392.076 260.529C387.743 262.863 385.243 264.029 384.576 264.029C383.909 264.029 383.076 262.363 382.076 259.029C381.076 255.696 378.576 252.029 374.576 248.029C370.576 244.029 359.909 235.529 342.576 222.529C325.243 209.529 314.576 202.196 310.576 200.529C306.576 198.863 302.409 197.696 298.076 197.029C293.743 196.363 289.409 196.196 285.076 196.529C280.743 196.863 277.409 197.529 275.076 198.529C272.743 199.529 270.243 201.696 267.576 205.029C264.909 208.363 262.409 215.696 260.076 227.029C257.743 238.363 256.076 248.529 255.076 257.529C254.076 266.529 253.576 277.862 253.576 291.529C253.576 305.196 254.743 316.696 257.076 326.029C259.409 335.362 262.243 343.696 265.576 351.029C268.909 358.362 271.576 363.362 273.576 366.029C275.576 368.696 278.243 370.196 281.576 370.529C284.909 370.862 287.409 370.196 289.076 368.529C290.743 366.862 291.576 364.529 291.576 361.529C291.576 358.529 290.076 354.529 287.076 349.529C284.076 344.529 281.409 338.862 279.076 332.529C276.743 326.196 275.076 319.696 274.076 313.029C273.076 306.362 272.909 295.529 273.576 280.529C274.243 265.529 275.743 251.363 278.076 238.029C280.409 224.696 281.909 217.696 282.576 217.029C283.243 216.363 285.243 216.029 288.576 216.029C291.909 216.029 296.576 217.196 302.576 219.529C308.576 221.863 319.909 229.529 336.576 242.529C353.243 255.529 362.576 264.029 364.576 268.029C366.576 272.029 365.076 275.529 360.076 278.529C355.076 281.529 350.076 285.362 345.076 290.029C340.076 294.696 334.576 302.029 328.576 312.029C322.576 322.029 315.243 337.862 306.576 359.529C297.909 381.196 293.909 397.696 294.576 409.029C295.243 420.362 293.909 426.362 290.576 427.029C287.243 427.696 283.576 429.029 279.576 431.029C275.576 433.029 271.076 436.362 266.076 441.029C261.076 445.696 256.909 451.196 253.576 457.529C250.654 463.081 247.895 471.368 245.232 481.56C245.023 482.64 244.838 483.945 244.607 484.935C244.604 484.995 244.61 485.069 244.607 485.123C243.97 493.727 241.945 499.803 237.451 503.685C235.471 505.395 233.225 506.456 230.076 507.654C229.109 508.236 228.052 508.733 226.982 509.217C224.969 510.566 222.939 511.909 220.576 513.029C207.909 519.029 199.909 523.196 196.576 525.529C193.243 527.862 189.909 531.029 186.576 535.029C183.243 539.029 181.743 542.696 182.076 546.029C182.409 549.362 184.243 551.696 187.576 553.029C190.909 554.362 193.409 554.696 195.076 554.029C196.743 553.362 199.909 550.696 204.576 546.029C209.243 541.362 216.076 536.862 225.076 532.529C229.576 530.362 234.076 528.196 238.576 526.029C238.743 529.529 238.909 533.029 239.076 536.529C239.409 543.529 240.909 550.196 243.576 556.529C244.405 558.499 244.678 560.227 244.701 561.841C245.446 564.335 245.711 566.753 244.732 567.967C242.805 570.355 240.18 571.84 235.982 573.404C235.571 573.557 235.157 573.708 234.607 573.904C234.635 573.894 232.203 574.796 231.764 574.967C227.963 576.441 222.763 580.149 219.92 583.373C219.736 583.581 219.523 583.776 219.264 583.998C219.238 584.019 219.228 584.038 219.201 584.06C218.475 584.831 217.949 585.516 217.482 586.154C217.016 587.737 216.982 589.651 217.576 592.029C218.243 594.696 219.243 596.529 220.576 597.529C221.909 598.529 223.909 599.029 226.576 599.029C229.243 599.029 232.243 597.696 235.576 595.029C238.909 592.362 244.076 589.529 251.076 586.529C258.076 583.529 263.909 584.362 268.576 589.029C273.243 593.696 277.743 597.362 282.076 600.029C286.409 602.696 295.576 606.029 309.576 610.029C323.576 614.029 337.076 615.862 350.076 615.529C363.076 615.196 373.076 615.696 380.076 617.029C387.076 618.362 395.576 618.862 405.576 618.529C415.576 618.196 422.743 618.529 427.076 619.529C431.409 620.529 444.576 621.196 466.576 621.529C488.576 621.862 503.409 622.529 511.076 623.529C518.743 624.529 534.743 625.029 559.076 625.029C583.409 625.029 600.576 624.196 610.576 622.529C620.576 620.862 633.409 619.529 649.076 618.529C664.743 617.529 676.243 616.196 683.576 614.529C690.909 612.862 697.409 610.529 703.076 607.529C708.743 604.529 713.576 602.696 717.576 602.029C721.576 601.362 726.409 599.862 732.076 597.529C737.743 595.196 746.743 589.529 759.076 580.529C771.409 571.529 779.243 565.362 782.576 562.029C785.909 558.696 790.076 553.529 795.076 546.529C800.076 539.529 803.076 534.696 804.076 532.029C805.076 529.362 807.909 528.196 812.576 528.529C817.243 528.862 820.243 528.696 821.576 528.029C822.909 527.362 824.076 526.196 825.076 524.529C826.076 522.862 826.409 520.696 826.076 518.029C825.876 516.43 825.403 515.19 824.826 514.091C824.031 513.517 823.33 512.928 822.295 512.373C822.239 512.343 822.131 512.278 822.076 512.248C819.954 512.024 818.226 511.499 816.764 510.717C814.413 510.585 812.471 510.055 811.42 508.404C809.293 505.062 808.661 500.537 808.92 494.123C808.982 492.573 809.075 491.13 809.264 488.748C809.585 484.67 809.67 483.591 809.67 482.029C809.67 481.919 809.502 479.502 809.482 479.123C809.36 476.795 809.442 475.633 810.232 474.841C810.245 474.829 810.251 474.822 810.264 474.81C810.51 474.321 810.927 473.935 811.514 473.935C811.624 473.935 811.691 474.037 811.795 474.06C812.42 474.132 813.044 474.209 813.67 474.279C814.424 474.231 815.126 474.118 815.92 474.123C819.213 474.141 822.711 474.689 826.138 475.435C831.912 475.861 838.407 477.518 844.138 479.873C844.448 479.911 844.85 479.97 845.138 479.998C845.761 480.058 846.285 480.048 846.795 480.029C847.467 479.656 848.119 479.289 848.857 478.717C849.284 478.385 850.475 477.413 851.138 476.873C851.605 476.091 851.964 475.31 852.076 474.529C852.409 472.196 852.076 469.862 851.076 467.529C850.825 466.944 850.373 466.444 850.014 465.904C849.69 465.631 849.172 465.169 849.107 465.123C849.032 465.066 848.208 464.546 848.045 464.435C847.792 464.267 847.688 463.979 847.576 463.717C846.978 463.416 846.599 463.22 845.326 462.56C841.699 460.674 839.877 459.886 837.795 459.341C837.489 459.279 837.125 459.185 836.795 459.123C835.409 458.82 833.974 458.604 831.045 458.279C830.823 458.254 827.45 457.864 826.795 457.779C824.446 457.476 822.461 457.082 820.701 456.623C818.658 456.219 816.906 455.686 815.326 455.029C812.308 454.477 810.049 452.966 808.482 450.185C808.213 449.798 807.905 449.463 807.638 449.091C807.285 448.666 806.952 448.22 806.638 447.748C806.008 446.758 805.348 445.5 804.732 444.279C804.693 444.183 804.611 444.125 804.576 444.029C804.46 443.738 804.315 443.474 804.201 443.185C803.617 441.954 803.031 440.954 802.42 439.467C802.318 439.22 802.004 438.468 801.795 437.935C799.756 433.597 797.585 429.4 795.076 425.529C791.409 419.862 787.409 415.362 783.076 412.029C778.743 408.696 773.243 405.362 766.576 402.029C759.909 398.696 755.409 396.696 753.076 396.029C750.743 395.362 745.243 395.029 736.576 395.029C727.909 395.029 719.909 395.862 712.576 397.529C708.909 398.362 705.243 399.196 701.576 400.029C701.576 399.029 701.576 398.029 701.576 397.029C701.576 396.977 701.602 396.951 701.607 396.904C701.354 395.829 701.166 394.681 701.107 393.341C700.292 390.33 699.818 386.773 700.295 384.685C700.249 384.087 700.185 383.215 700.17 383.029C700.112 382.424 700.035 380.722 699.982 379.029C699.955 378.197 699.925 377.471 699.92 376.935C699.919 376.844 699.923 376.798 699.92 376.717C698.887 369.306 696.973 361.751 694.076 354.029C692.576 350.029 691.076 346.029 689.576 342.029C690.909 342.029 692.243 342.029 693.576 342.029C696.243 342.029 698.409 341.196 700.076 339.529C701.743 337.862 703.743 332.696 706.076 324.029C708.409 315.362 710.243 297.862 711.576 271.529C712.909 245.196 713.409 226.529 713.076 215.529C712.743 204.529 711.743 196.363 710.076 191.029C708.409 185.696 706.409 181.863 704.076 179.529C701.743 177.196 699.243 175.529 696.576 174.529C693.909 173.529 689.576 173.029 683.576 173.029ZM686.076 192.529C689.076 192.863 691.076 195.363 692.076 200.029C693.076 204.696 693.243 221.696 692.576 251.029C691.909 280.362 691.076 298.529 690.076 305.529C689.076 312.529 687.743 318.529 686.076 323.529C685.243 326.029 684.409 328.529 683.576 331.029C681.743 328.362 679.909 325.696 678.076 323.029C674.409 317.696 667.409 309.529 657.076 298.529C646.743 287.529 635.743 278.196 624.076 270.529C612.409 262.863 604.076 258.196 599.076 256.529C594.076 254.863 591.576 252.696 591.576 250.029C591.576 247.363 596.909 241.696 607.576 233.029C618.243 224.363 629.743 216.363 642.076 209.029C654.409 201.696 664.076 197.029 671.076 195.029C678.076 193.029 683.076 192.196 686.076 192.529ZM500.92 254.811C504.191 254.79 507.409 254.863 510.576 255.029C523.243 255.696 529.409 261.196 529.076 271.529C528.743 281.862 529.243 291.196 530.576 299.529C531.909 307.862 534.076 315.529 537.076 322.529C540.076 329.529 544.409 335.696 550.076 341.029C555.743 346.362 563.909 351.196 574.576 355.529C585.243 359.862 597.909 364.029 612.576 368.029C627.243 372.029 639.743 376.696 650.076 382.029C660.409 387.362 668.243 390.529 673.576 391.529C678.909 392.529 681.743 395.362 682.076 400.029C682.409 404.696 683.243 407.696 684.576 409.029C685.909 410.362 687.409 411.196 689.076 411.529C690.743 411.862 691.409 413.029 691.076 415.029C690.743 417.029 691.576 419.196 693.576 421.529C695.576 423.862 697.909 425.029 700.576 425.029C703.243 425.029 705.243 424.529 706.576 423.529C707.909 422.529 708.743 421.362 709.076 420.029C709.409 418.696 710.576 417.696 712.576 417.029C714.576 416.362 720.243 415.696 729.576 415.029C738.909 414.362 747.409 415.696 755.076 419.029C762.743 422.362 768.076 425.196 771.076 427.529C774.076 429.862 777.409 434.196 781.076 440.529C784.743 446.862 786.576 450.696 786.576 452.029C786.576 453.362 781.743 454.362 772.076 455.029C762.409 455.696 751.243 457.529 738.576 460.529C725.909 463.529 717.743 465.862 714.076 467.529C710.409 469.196 706.909 471.362 703.576 474.029C700.243 476.696 698.409 479.696 698.076 483.029C697.743 486.362 698.243 488.862 699.576 490.529C700.909 492.196 702.909 493.196 705.576 493.529C708.243 493.862 711.076 492.862 714.076 490.529C717.076 488.196 720.743 486.196 725.076 484.529C729.409 482.862 736.909 480.862 747.576 478.529C758.243 476.196 768.243 474.696 777.576 474.029C782.243 473.696 786.909 473.362 791.576 473.029C791.909 477.196 792.243 481.362 792.576 485.529C793.243 493.862 793.243 499.696 792.576 503.029C791.909 506.362 786.909 508.196 777.576 508.529C768.243 508.862 753.076 510.362 732.076 513.029C711.076 515.696 699.243 518.362 696.576 521.029C693.909 523.696 692.909 526.362 693.576 529.029C694.243 531.696 695.576 533.696 697.576 535.029C699.576 536.362 714.409 535.529 742.076 532.529C755.909 531.029 769.743 529.528 783.576 528.029C780.409 532.029 777.243 536.029 774.076 540.029C767.743 548.029 758.909 556.196 747.576 564.529C736.243 572.862 726.076 578.196 717.076 580.529C714.798 581.12 713.442 581.602 711.764 582.123C708.127 584.205 704.412 585.788 700.67 587.06C699.224 588.204 696.944 589.482 693.076 591.029C688.076 593.029 682.243 594.696 675.576 596.029C668.909 597.362 662.909 598.029 657.576 598.029C652.243 598.029 638.409 599.362 616.076 602.029C593.743 604.696 573.243 605.862 554.576 605.529C551.106 605.467 550.997 605.356 548.326 605.279C535.852 606.372 521.931 606.193 500.514 604.935C484.034 603.966 423.973 600.678 417.357 600.31C409.513 599.874 402.167 599.323 393.451 598.529C386.941 598.482 381.306 598.227 377.576 597.529C376.999 597.421 376.67 597.296 376.201 597.185C369.094 597.103 362.136 596.702 356.326 595.935C355.931 595.926 355.324 595.916 354.92 595.904C352.695 595.828 350.727 595.587 348.857 595.248C339.61 596.112 329.707 595.263 319.076 592.529C307.409 589.529 299.409 586.862 295.076 584.529C290.743 582.196 287.409 579.696 285.076 577.029C283.909 575.696 282.743 574.362 281.576 573.029C289.243 570.862 296.909 568.696 304.576 566.529C319.909 562.196 332.909 559.029 343.576 557.029C354.243 555.029 360.576 553.029 362.576 551.029C364.576 549.029 365.576 546.862 365.576 544.529C365.576 542.196 364.743 540.029 363.076 538.029C361.409 536.029 358.909 535.029 355.576 535.029C352.243 535.029 343.743 536.529 330.076 539.529C316.409 542.529 302.243 546.362 287.576 551.029C272.909 555.696 264.409 555.362 262.076 550.029C259.743 544.696 258.409 538.696 258.076 532.029C257.743 525.362 257.909 521.029 258.576 519.029C259.243 517.029 266.076 514.029 279.076 510.029C292.076 506.029 304.076 503.696 315.076 503.029C326.076 502.362 332.409 501.696 334.076 501.029C335.743 500.362 337.243 499.029 338.576 497.029C339.909 495.029 340.243 492.529 339.576 489.529C338.909 486.529 337.909 484.529 336.576 483.529C335.243 482.529 331.243 482.029 324.576 482.029C317.909 482.029 310.909 482.529 303.576 483.529C296.243 484.529 287.409 486.696 277.076 490.029C271.909 491.696 266.743 493.362 261.576 495.029C262.409 491.696 263.243 488.362 264.076 485.029C265.743 478.362 267.743 472.696 270.076 468.029C272.409 463.362 275.076 459.529 278.076 456.529C281.076 453.529 284.409 451.029 288.076 449.029C291.743 447.029 295.076 445.862 298.076 445.529C301.076 445.196 303.243 445.696 304.576 447.029C305.909 448.362 308.409 448.862 312.076 448.529C315.743 448.196 318.243 447.029 319.576 445.029C320.909 443.029 321.576 441.029 321.576 439.029C321.576 437.029 320.576 434.696 318.576 432.029C317.576 430.696 316.576 429.362 315.576 428.029C317.076 428.029 318.576 428.029 320.076 428.029C323.076 428.029 329.909 426.362 340.576 423.029C351.243 419.696 363.076 415.029 376.076 409.029C389.076 403.029 400.409 395.196 410.076 385.529C419.743 375.862 427.909 365.362 434.576 354.029C441.243 342.696 445.909 331.529 448.576 320.529C451.243 309.529 452.576 301.029 452.576 295.029C452.576 289.029 451.743 284.529 450.076 281.529C448.409 278.529 445.409 276.862 441.076 276.529C436.743 276.196 433.743 276.862 432.076 278.529C430.409 280.196 429.576 282.529 429.576 285.529C429.576 288.529 430.243 290.529 431.576 291.529C432.909 292.529 433.576 293.696 433.576 295.029C433.576 296.362 432.243 302.696 429.576 314.029C426.909 325.362 423.909 334.196 420.576 340.529C417.243 346.862 413.243 353.029 408.576 359.029C403.909 365.029 397.576 371.362 389.576 378.029C381.576 384.696 372.243 390.196 361.576 394.529C350.909 398.862 340.243 402.529 329.576 405.529C324.243 407.029 318.909 408.529 313.576 410.029C313.409 408.196 313.243 406.362 313.076 404.529C312.743 400.862 312.909 397.362 313.576 394.029C314.243 390.696 318.409 380.029 326.076 362.029C333.743 344.029 339.409 331.696 343.076 325.029C346.743 318.362 352.076 311.696 359.076 305.029C366.076 298.362 375.743 291.696 388.076 285.029C400.409 278.362 413.576 272.696 427.576 268.029C441.576 263.363 455.743 259.863 470.076 257.529C480.826 255.779 491.107 254.873 500.92 254.811ZM551.232 260.873C554.045 260.811 560.326 262.529 570.076 266.029C583.076 270.696 595.909 276.862 608.576 284.529C621.243 292.196 633.243 302.196 644.576 314.529C655.909 326.862 663.576 336.362 667.576 343.029C671.576 349.696 674.409 356.196 676.076 362.529C676.909 365.696 677.743 368.862 678.576 372.029C677.409 371.862 676.243 371.696 675.076 371.529C672.743 371.196 666.743 368.529 657.076 363.529C647.409 358.529 632.243 353.029 611.576 347.029C590.909 341.029 578.076 336.696 573.076 334.029C568.076 331.362 564.076 328.362 561.076 325.029C558.076 321.696 555.743 317.862 554.076 313.529C552.409 309.196 551.076 304.029 550.076 298.029C549.076 292.029 548.576 284.862 548.576 276.529C548.576 268.196 548.909 263.196 549.576 261.529C549.743 261.113 550.295 260.894 551.232 260.873ZM573.888 393.779C571.763 393.779 569.826 394.529 568.076 396.029C565.743 398.029 564.743 400.696 565.076 404.029C565.409 407.362 571.743 416.196 584.076 430.529C596.409 444.862 604.576 452.029 608.576 452.029C612.576 452.029 615.243 451.029 616.576 449.029C617.909 447.029 618.243 444.529 617.576 441.529C616.909 438.529 610.576 430.029 598.576 416.029C586.576 402.029 579.076 394.696 576.076 394.029C575.326 393.862 574.597 393.779 573.888 393.779ZM447.701 397.404C446.784 397.487 445.909 397.696 445.076 398.029C443.409 398.696 439.409 402.529 433.076 409.529C426.743 416.529 419.576 425.196 411.576 435.529C403.576 445.862 399.409 452.362 399.076 455.029C398.743 457.696 399.576 460.196 401.576 462.529C403.576 464.862 406.243 465.862 409.576 465.529C412.909 465.196 417.409 461.029 423.076 453.029C428.743 445.029 435.909 436.362 444.576 427.029C453.243 417.696 457.576 411.196 457.576 407.529C457.576 403.862 456.909 401.362 455.576 400.029C454.243 398.696 452.576 397.862 450.576 397.529C449.576 397.362 448.618 397.321 447.701 397.404ZM521.076 465.029C516.743 465.029 512.409 466.196 508.076 468.529C503.743 470.862 501.076 472.862 500.076 474.529C499.076 476.196 498.743 478.529 499.076 481.529C499.409 484.529 500.576 486.862 502.576 488.529C504.576 490.196 507.243 491.196 510.576 491.529C513.909 491.862 518.409 491.362 524.076 490.029C529.743 488.696 533.409 487.029 535.076 485.029C536.743 483.029 537.409 480.196 537.076 476.529C536.743 472.862 535.076 470.029 532.076 468.029C529.076 466.029 525.409 465.029 521.076 465.029ZM479.076 475.029C477.076 475.196 475.243 475.696 473.576 476.529C470.243 478.196 466.576 480.696 462.576 484.029C458.576 487.362 454.076 492.362 449.076 499.029C444.076 505.696 441.576 512.196 441.576 518.529C441.576 524.862 442.243 529.196 443.576 531.529C444.909 533.862 447.576 536.862 451.576 540.529C455.576 544.196 460.743 547.362 467.076 550.029C473.409 552.696 478.909 554.029 483.576 554.029C488.243 554.029 492.409 553.362 496.076 552.029C499.743 550.696 503.743 548.196 508.076 544.529C512.409 540.862 515.076 539.029 516.076 539.029C517.076 539.029 519.743 541.029 524.076 545.029C528.409 549.029 532.243 551.529 535.576 552.529C538.909 553.529 542.909 554.029 547.576 554.029C552.243 554.029 556.576 553.196 560.576 551.529C564.576 549.862 568.576 547.029 572.576 543.029C576.576 539.029 579.409 534.862 581.076 530.529C582.743 526.196 583.576 519.529 583.576 510.529C583.576 501.529 582.909 495.529 581.576 492.529C580.243 489.529 578.409 486.862 576.076 484.529C573.743 482.196 571.409 480.529 569.076 479.529C566.743 478.529 564.243 478.029 561.576 478.029C558.909 478.029 556.409 479.029 554.076 481.029C551.743 483.029 550.743 485.862 551.076 489.529C551.409 493.196 553.409 495.696 557.076 497.029C560.743 498.362 562.909 499.529 563.576 500.529C564.243 501.529 564.409 505.529 564.076 512.529C563.743 519.529 562.076 524.696 559.076 528.029C556.076 531.362 552.409 533.196 548.076 533.529C543.743 533.862 540.909 533.696 539.576 533.029C538.243 532.362 535.743 530.196 532.076 526.529C528.409 522.862 525.909 519.196 524.576 515.529C523.243 511.862 521.409 509.196 519.076 507.529C516.743 505.862 514.243 505.196 511.576 505.529C508.909 505.862 507.076 506.529 506.076 507.529C505.076 508.529 504.576 511.029 504.576 515.029C504.576 519.029 502.909 522.696 499.576 526.029C496.243 529.362 493.576 531.529 491.576 532.529C489.576 533.529 486.743 534.029 483.076 534.029C479.409 534.029 475.909 533.196 472.576 531.529C469.243 529.862 466.409 527.862 464.076 525.529C461.743 523.196 460.576 520.862 460.576 518.529C460.576 516.196 461.409 513.862 463.076 511.529C464.743 509.196 468.076 505.862 473.076 501.529C478.076 497.196 481.409 495.529 483.076 496.529C484.743 497.529 486.576 498.029 488.576 498.029C490.576 498.029 492.743 497.029 495.076 495.029C497.409 493.029 498.576 490.862 498.576 488.529C498.576 486.196 497.576 483.696 495.576 481.029C493.576 478.362 490.243 476.529 485.576 475.529C483.243 475.029 481.076 474.862 479.076 475.029Z" fill="#000000" fill-rule="nonzero" opacity="1" stroke="none" vectornator:layerName="곡선 1"/>
</g>
<g id="레이어-2" vectornator:layerName="레이어 2">
<path d="M884.539 669.396C885.558 669.396 886.623 669.277 887.59 669.6C887.997 669.735 886.773 669.86 886.37 670.006C885.281 670.402 884.223 670.886 883.115 671.227C880.613 671.997 878.761 671.921 876.607 670.413C870.668 666.256 864.928 656.605 864.403 649.261C864.009 643.742 865.791 639.478 866.844 634.21C867.616 630.348 868.163 625.555 870.098 622.006C874.105 614.661 890.412 604.788 898.573 604.108C906.063 603.484 914.965 605.558 920.946 610.21C924.453 612.937 928.15 619.353 930.302 623.227C932.622 627.402 932.269 634.202 931.522 638.684C931.36 639.658 931.696 641.532 930.709 641.532C930.031 641.532 930.709 640.176 930.709 639.498C930.709 638.549 930.522 637.581 930.709 636.65C930.852 635.934 931.273 635.303 931.522 634.617C933.242 629.888 936.528 624.774 940.878 622.006C951.509 615.241 969.725 616.676 977.895 626.888C986.205 637.275 990.733 648.225 985.217 661.464C983.454 665.695 978.956 668.247 974.641 668.786C973.107 668.978 971.675 669.671 970.166 670.006C969.769 670.095 968.946 670.006 968.946 670.006C968.946 670.006 970.573 670.006 971.387 670.006C972.821 670.006 973.019 669.927 974.641 670.413C979.151 671.766 983.334 674.296 985.624 678.549C992.328 691 995.148 710.605 989.692 723.701C988.29 727.065 988.11 725.49 985.624 727.769C983.997 729.261 982.649 731.132 980.742 732.244C977.242 734.286 965.693 736.312 961.624 734.278C957.755 732.343 955.86 725.801 953.488 722.481C951.907 720.268 953.125 722.294 952.675 720.04C952.615 719.743 952.482 719.012 952.268 719.227C952 719.494 952.675 723.459 952.675 723.701C952.675 726.655 952.052 729.432 951.048 732.244C947.984 740.822 926.774 751.353 917.692 748.515C909.049 745.814 897.409 743.094 896.132 732.244C895.59 727.638 896.096 722.961 898.166 718.82C898.213 718.726 900.768 715.198 901.014 715.566C902.919 718.424 894.242 727.276 892.064 728.583C883.543 733.695 863.489 739.059 855.454 731.023C850.793 726.362 851.142 716.25 850.573 710.278C849.807 702.236 849.108 692.856 853.42 685.464C856.681 679.875 864.57 674.331 870.505 671.634C872.039 670.936 874.165 670.956 875.793 670.413C876.569 670.155 878.479 669.193 879.454 669.193C882.44 669.193 883.655 669.396 884.539 669.396Z" fill="none" opacity="1" stroke="#fe9796" stroke-linecap="round" stroke-linejoin="round" stroke-width="18.8" vectornator:layerName="곡선 1"/>
<path d="M925.42 680.176C926.172 679.528 923.94 682.72 924.2 685.057C924.532 688.043 927.718 690.62 930.709 689.125C931.793 688.583 933.014 687.362 933.556 686.278C935.219 682.951 933.362 679.649 929.895 678.956C929.704 678.917 925.859 678.323 925.827 678.549C925.692 679.498 924.867 680.653 925.42 680.176Z" fill="none" opacity="1" stroke="#fe9796" stroke-linecap="round" stroke-linejoin="round" stroke-width="18.8" vectornator:layerName="곡선 2"/>
</g>
<g id="레이어-3-복사" vectornator:layerName="레이어 3 복사">
<path d="M124.192 378.869C124.944 378.221 122.712 381.413 122.972 383.75C123.304 386.736 126.49 389.313 129.481 387.818C130.565 387.276 131.786 386.055 132.328 384.971C133.991 381.644 132.134 378.342 128.667 377.649C128.476 377.61 124.631 377.016 124.599 377.242C124.464 378.191 123.639 379.346 124.192 378.869Z" fill="none" opacity="1" stroke="#fe9796" stroke-linecap="round" stroke-linejoin="round" stroke-width="18.8" vectornator:layerName="곡선 2"/>
<path d="M133.142 337.784C134.016 337.347 131.596 336.318 131.514 335.343C131.439 334.437 132.544 333.792 132.735 332.903C133.013 331.607 132.958 327.959 132.735 326.394C131.792 319.797 128.744 313.888 123.379 309.715C118.639 306.028 112.245 306.93 106.7 306.054C103.047 305.478 100.354 303.796 96.5302 304.02C79.3562 305.031 68.8442 315.071 63.1742 330.462C61.5172 334.962 60.0672 341.09 61.1412 345.92C62.7852 353.319 68.1272 361.588 75.3782 364.225C76.9542 364.798 78.6412 365.004 80.2592 365.445C81.6252 365.818 82.9492 366.341 84.3272 366.666C84.4122 366.685 89.2342 367.124 89.6152 367.886C89.7762 368.207 83.6072 367.491 83.5132 367.479C80.8822 367.15 77.2112 367.29 74.5642 367.479C66.5852 368.049 57.3412 370.66 50.9712 375.615C45.2582 380.058 41.6832 390.793 42.0222 397.581C42.2662 402.465 44.6582 407.978 46.0902 412.632C47.7442 418.009 49.2772 422.734 53.4122 426.869C56.0302 429.487 59.3902 429.629 62.7682 430.53C71.4102 432.834 79.5492 435.833 88.3952 431.75C91.7082 430.221 94.3702 428.123 96.5302 425.242C96.8062 424.874 99.2752 419.851 99.3782 419.954C99.6802 420.256 99.7302 423.289 99.7852 423.615C100.436 427.522 101.66 432.247 103.446 435.818C110.817 450.559 126.434 454.19 141.277 449.242C148.062 446.98 157.66 440.546 159.175 432.971C159.665 430.525 159.779 427.355 159.989 424.835C160.277 421.38 159.072 418.526 157.548 415.479C156.993 414.369 156.2 413.952 155.514 413.038C155.284 412.732 154.43 411.954 154.701 412.225C161.955 419.479 171.171 420.362 180.328 416.699C184.664 414.965 189.137 413.892 192.125 409.784C197.072 402.982 198.209 392.611 196.599 384.564C194.271 372.921 187.205 370.327 176.26 370.327C173.16 370.327 169.543 370.632 166.497 371.14C166.198 371.19 165.684 371.244 165.684 371.547C165.684 372.36 167.33 371.723 168.125 371.547C170.251 371.074 172.363 370.193 174.226 369.106C179.809 365.85 184.315 362.434 186.43 356.089C188.389 350.21 189.693 339.022 186.836 333.31C185.521 330.68 181.918 328.613 179.921 326.394C177.312 323.495 173.307 319.629 169.752 317.851C167.736 316.843 164.622 317.444 162.43 317.444C152.655 317.444 145.881 320.977 139.243 327.615C137.367 329.491 135.694 333.282 134.769 335.75C134.468 336.553 134.804 338.312 133.955 338.191C132.987 338.053 132.194 338.258 133.142 337.784Z" fill="none" opacity="1" stroke="#fe9796" stroke-linecap="round" stroke-linejoin="round" stroke-width="18.8" vectornator:layerName="곡선 3"/>
</g>
<g id="레이어-4" vectornator:layerName="레이어 4">
<path d="M332.856 127.647C336.775 115.584 353.84 115.584 357.76 127.647C359.512 133.041 364.539 136.694 370.212 136.694C382.895 136.694 388.168 152.923 377.907 160.378C373.319 163.712 371.398 169.622 373.151 175.017C377.07 187.079 363.265 197.11 353.004 189.655C348.415 186.321 342.201 186.321 337.612 189.655C327.351 197.11 313.545 187.079 317.465 175.017C319.217 169.622 317.297 163.712 312.708 160.378C302.447 152.923 307.721 136.694 320.404 136.694C326.076 136.694 331.103 133.041 332.856 127.647Z" fill="#e5e5e9" fill-rule="nonzero" opacity="1" stroke="none" vectornator:layerName="path"/>
</g>
<g id="레이어-5" vectornator:layerName="레이어 5">
<path d="M196.046 27.3558C202.404 7.78863 230.087 7.78863 236.444 27.3558C239.287 36.1065 247.442 42.0313 256.643 42.0313C277.217 42.0313 285.772 68.3587 269.127 80.4518C261.683 85.8601 258.568 95.4463 261.412 104.197C267.769 123.764 245.374 140.036 228.729 127.942C221.285 122.534 211.205 122.534 203.762 127.942C187.117 140.036 164.721 123.764 171.079 104.197C173.922 95.4463 170.808 85.8601 163.364 80.4518C146.719 68.3587 155.273 42.0313 175.847 42.0313C185.049 42.0313 193.203 36.1065 196.046 27.3558Z" fill="#e5e5e9" fill-rule="nonzero" opacity="1" stroke="none" vectornator:layerName="path"/>
</g>
</svg>
