<?xml version="1.0" encoding="UTF-8" standalone="no"?>
<!DOCTYPE svg PUBLIC "-//W3C//DTD SVG 1.1//EN" "http://www.w3.org/Graphics/SVG/1.1/DTD/svg11.dtd">
<!-- Created with Vectornator (http://vectornator.io/) -->
<svg height="100%" stroke-miterlimit="10" style="fill-rule:nonzero;clip-rule:evenodd;stroke-linecap:round;stroke-linejoin:round;" version="1.1" viewBox="0 0 472.565 452.814" width="100%" xml:space="preserve" xmlns="http://www.w3.org/2000/svg" xmlns:vectornator="http://vectornator.io" xmlns:xlink="http://www.w3.org/1999/xlink">
<defs/>
<g id="핀" vectornator:layerName="핀">
<g opacity="1" vectornator:layerName="그룹 1">
<g opacity="1" vectornator:layerName="그룹 1">
<path d="M204.874 3.3428C193.958 5.40728 183.047 8.65124 172.135 13.0751C161.224 17.4989 152.079 22.07 144.71 26.7887C137.336 31.5078 129.373 37.8485 120.818 45.8111C112.266 53.7742 104.303 63.064 96.9297 73.6813C89.5559 84.2986 83.6586 95.0631 79.2335 105.975C74.8126 116.887 71.5695 127.799 69.5041 138.711C67.4388 149.624 66.4083 159.946 66.4083 169.678C66.4083 179.411 67.586 190.322 69.9458 202.414C72.3056 214.506 74.9598 224.828 77.9085 233.381C80.8571 241.934 85.5767 252.993 92.0629 266.559C98.5533 280.124 104.598 291.628 110.201 301.067C115.804 310.502 124.654 323.773 136.743 340.88C148.836 357.984 159.6 372.289 169.039 383.79C178.474 395.294 191.304 409.596 207.528 426.703C223.748 443.806 233.035 452.505 235.395 452.804C237.755 453.098 244.981 447.196 257.075 435.107C269.164 423.014 281.699 409.301 294.675 393.965C307.652 378.628 318.416 365.21 326.968 353.71C335.523 342.205 344.958 328.198 355.281 311.684C365.603 295.166 374.007 280.124 380.498 266.559C386.984 252.993 391.704 241.934 394.652 233.381C397.601 224.828 400.255 214.506 402.615 202.414C404.975 190.322 406.157 179.411 406.157 169.678C406.157 159.946 405.122 149.624 403.057 138.711C400.996 127.799 397.748 116.887 393.327 105.975C388.902 95.0631 384.33 85.9206 379.61 78.5476C374.895 71.1743 368.552 63.2116 360.589 54.6588C352.626 46.106 343.339 38.1434 332.718 30.7704C322.101 23.3975 311.337 17.4989 300.425 13.0751C289.514 8.65124 278.603 5.40728 267.691 3.3428C256.776 1.27831 246.306 0.246069 236.283 0.246069C226.255 0.246069 215.785 1.27831 204.874 3.3428ZM240.262 92.7038C246.454 92.9986 251.766 93.736 256.187 94.9155C260.612 96.0954 265.037 97.7173 269.458 99.7818C273.883 101.846 278.456 104.648 283.175 108.187C287.89 111.726 291.579 114.97 294.234 117.919C296.888 120.869 299.837 125.145 303.08 130.748C306.323 136.352 308.977 143.577 311.042 152.425C313.108 161.273 313.991 168.498 313.697 174.102C313.402 179.705 312.666 184.866 311.484 189.585C310.306 194.304 308.683 198.875 306.617 203.299C304.556 207.723 301.607 212.441 297.771 217.455C293.939 222.469 290.25 226.45 286.713 229.399C283.175 232.349 279.044 235.15 274.325 237.805C269.605 240.459 262.972 242.818 254.42 244.883C245.865 246.947 238.638 247.832 232.741 247.537C226.843 247.242 221.535 246.505 216.815 245.325C212.096 244.145 207.528 242.523 203.103 240.459C198.678 238.394 193.958 235.445 188.944 231.611C183.934 227.777 179.951 224.091 177.002 220.552C174.053 217.013 171.252 212.884 168.598 208.165C165.944 203.446 163.584 196.663 161.518 187.816C159.453 178.968 158.57 171.742 158.864 166.139C159.159 160.535 159.895 155.374 161.077 150.655C162.255 145.937 163.878 141.366 165.944 136.942C168.005 132.518 170.958 127.799 174.79 122.786C178.626 117.772 182.311 113.79 185.848 110.841C189.39 107.892 193.516 105.09 198.236 102.436C202.955 99.7818 209.589 97.4225 218.145 95.358C226.696 93.2935 234.07 92.4089 240.262 92.7038Z" fill="#000000" fill-rule="nonzero" opacity="1" stroke="none" vectornator:layerName="곡선 1"/>
</g>
</g>
</g>
<g id="원" vectornator:layerName="원">
<g opacity="1" vectornator:layerName="그룹 3">
<path d="M231.665 60.4878C228.397 60.5825 225.295 60.8193 222.358 61.1982C216.486 61.956 209.571 63.661 201.614 66.3132C193.657 68.9655 186.932 71.9019 181.438 75.1224C175.944 78.343 170.734 82.0372 165.809 86.205C160.883 90.373 155.958 95.5824 151.032 101.834C146.106 108.086 141.939 114.717 138.529 121.726C135.119 128.736 132.561 135.65 130.856 142.47C129.151 149.29 128.109 156.205 127.73 163.214C127.351 170.224 127.541 176.76 128.299 182.822C129.056 188.885 130.856 196.084 133.698 204.419C136.539 212.755 140.044 220.238 144.212 226.868C148.38 233.499 153.021 239.466 158.136 244.771C163.251 250.076 168.366 254.527 173.481 258.127C178.596 261.726 184.185 264.947 190.247 267.788C196.31 270.63 202.751 272.903 209.571 274.608C216.391 276.313 223.4 277.356 230.599 277.734C237.798 278.113 244.334 277.924 250.207 277.166C256.079 276.408 262.994 274.703 270.951 272.051C278.908 269.399 286.391 265.894 293.4 261.537C300.41 257.18 306.567 252.443 311.871 247.328C317.176 242.213 321.628 237.098 325.227 231.983C328.826 226.868 332.047 221.28 334.889 215.217C337.731 209.155 340.004 202.714 341.709 195.894C343.414 189.074 344.456 182.159 344.835 175.15C345.214 168.14 345.024 161.604 344.266 155.542C343.509 149.48 341.804 142.47 339.151 134.513C336.499 126.557 333.563 119.832 330.342 114.338C327.121 108.844 323.427 103.634 319.26 98.7083C315.092 93.7831 309.882 88.8573 303.63 83.9316C297.379 79.0061 290.748 74.8383 283.739 71.4282C276.729 68.0182 269.814 65.4608 262.994 63.7557C256.174 62.0507 249.165 61.0087 241.966 60.6298C238.367 60.4404 234.933 60.3931 231.665 60.4878Z" fill="#ffffff" fill-rule="nonzero" opacity="1" stroke="none" vectornator:layerName="path"/>
</g>
</g>
<g id="발바닥" vectornator:layerName="발바닥">
<g opacity="1" vectornator:layerName="그룹 2">
<path d="M264.622 102.036C260.171 102.036 256.462 102.778 253.495 104.261C250.527 105.746 248.302 107.415 246.819 109.268C245.336 111.123 244.037 113.534 242.924 116.501C241.812 119.468 241.441 122.806 241.812 126.515C242.182 130.224 242.924 133.191 244.037 135.416C245.15 137.642 247.561 140.053 251.27 142.649C254.978 145.245 259.801 146.359 265.735 145.987C271.668 145.616 276.491 143.391 280.2 139.311C283.908 135.232 285.763 130.224 285.763 124.289C285.763 118.355 284.464 113.719 281.868 110.381C279.273 107.043 276.861 104.817 274.636 103.705C272.411 102.592 269.073 102.036 264.622 102.036Z" fill="#fe9796" fill-rule="nonzero" opacity="1" stroke="none" vectornator:layerName="곡선"/>
<path d="M207.035 102.445C202.716 102.584 199.026 103.767 195.962 105.995C191.876 108.967 189.276 111.753 188.162 114.352C187.048 116.953 186.491 120.109 186.491 123.823C186.491 127.538 187.048 130.694 188.162 133.294C189.276 135.894 191.319 138.494 194.291 141.093C197.262 143.694 201.719 145.179 207.661 145.55C213.603 145.923 217.875 145.365 220.474 143.879C223.074 142.394 225.488 139.979 227.717 136.636C229.946 133.294 231.059 129.023 231.059 123.823C231.059 118.624 229.388 113.981 226.046 109.895C222.703 105.81 217.875 103.396 211.561 102.653C209.982 102.468 208.473 102.398 207.035 102.445Z" fill="#fe9796" fill-rule="nonzero" opacity="1" stroke="none" vectornator:layerName="path"/>
<path d="M304.42 140.37C302.524 140.265 300.84 140.423 299.365 140.845C296.417 141.687 293.679 143.372 291.151 145.899C288.624 148.427 286.939 151.797 286.096 156.009C285.253 160.223 286.307 164.855 289.255 169.91C292.203 174.965 296.627 177.915 302.524 178.757C308.422 179.6 313.477 178.336 317.689 174.965C321.901 171.596 324.22 167.383 324.64 162.328C325.061 157.273 324.008 152.85 321.481 149.059C318.953 145.267 315.373 142.74 310.739 141.476C308.422 140.845 306.316 140.477 304.42 140.37Z" fill="#fe9796" fill-rule="nonzero" opacity="1" stroke="none" vectornator:layerName="path"/>
<path d="M233.57 150.971C230.911 151.035 228.379 151.256 225.974 151.636C221.163 152.395 216.732 153.662 212.681 155.434C208.631 157.207 205.338 158.979 202.807 160.75C200.275 162.524 197.363 165.308 194.072 169.106C190.78 172.904 188.248 176.449 186.476 179.74C184.703 183.032 183.058 187.843 181.538 194.172C180.019 200.502 179.386 206.072 179.639 210.883C179.892 215.694 180.652 219.744 181.918 223.036C183.184 226.328 184.45 228.733 185.716 230.252C186.982 231.771 188.881 233.164 191.413 234.43C193.945 235.696 196.983 236.329 200.528 236.329C204.073 236.329 210.022 234.936 218.378 232.151C226.733 229.366 233.317 228.1 238.127 228.353C242.937 228.607 248.888 229.999 255.977 232.531C263.067 235.063 268.383 236.329 271.928 236.329C275.473 236.329 278.132 235.949 279.904 235.189C281.676 234.43 283.575 233.037 285.601 231.012C287.627 228.986 289.399 225.441 290.917 220.377C292.437 215.314 292.944 209.743 292.437 203.667C291.93 197.59 290.665 191.893 288.639 186.576C286.613 181.259 284.335 176.829 281.803 173.284C279.271 169.739 275.979 166.321 271.928 163.029C267.878 159.738 263.32 157.08 258.256 155.053C253.192 153.029 247.749 151.763 241.925 151.256C239.013 151.003 236.228 150.908 233.57 150.971Z" fill="#fe9796" fill-rule="nonzero" opacity="1" stroke="none" vectornator:layerName="path"/>
<path d="M168.058 139.785C164.663 139.865 161.025 141.036 157.146 143.299C151.973 146.318 148.956 150.844 148.093 156.879C147.231 162.914 148.524 168.086 151.973 172.397C155.422 176.709 159.948 179.079 165.552 179.51C171.155 179.942 176.114 178.002 180.424 173.69C184.734 169.38 186.89 164.638 186.89 159.465C186.89 154.292 185.381 149.982 182.363 146.532C179.347 143.085 175.682 140.929 171.371 140.066C170.294 139.852 169.188 139.758 168.058 139.785Z" fill="#fe9796" fill-rule="nonzero" opacity="1" stroke="none" vectornator:layerName="path"/>
</g>
</g>
</svg>
