<?xml version="1.0" encoding="UTF-8" standalone="no"?>
<!DOCTYPE svg PUBLIC "-//W3C//DTD SVG 1.1//EN" "http://www.w3.org/Graphics/SVG/1.1/DTD/svg11.dtd">
<!-- Created with Vectornator (http://vectornator.io/) -->
<svg height="100%" stroke-miterlimit="10" style="fill-rule:nonzero;clip-rule:evenodd;stroke-linecap:round;stroke-linejoin:round;" version="1.1" viewBox="0 0 430 376" width="100%" xml:space="preserve" xmlns="http://www.w3.org/2000/svg" xmlns:vectornator="http://vectornator.io" xmlns:xlink="http://www.w3.org/1999/xlink">
<defs/>
<clipPath id="ArtboardFrame">
<rect height="376" width="430" x="0" y="0"/>
</clipPath>
<g clip-path="url(#ArtboardFrame)" id="무제" vectornator:layerName="무제">
<g opacity="1" vectornator:layerName="rect">
<clipPath clip-rule="nonzero" id="ClipPath">
<path d="M0-104.79L430-104.79L430-104.79L430 601.21L430 601.21L0 601.21L0 601.21L0-104.79L0-104.79Z"/>
</clipPath>
<g clip-path="url(#ClipPath)">
<path d="M125.282 99.09C124.522 99.19 123.962 98.87 123.822 98.13C123.682 97.37 124.062 96.75 124.822 96.63C128.142 96.13 130.382 94.31 130.382 92.81C130.382 92.07 130.122 91.81 129.382 91.81L125.542 91.81C124.702 91.81 124.262 91.29 124.262 90.61C124.262 89.93 124.662 89.41 125.542 89.41L130.302 89.41C132.662 89.41 133.502 90.47 133.502 92.61C133.502 95.61 130.122 98.45 125.282 99.09ZM133.882 93.67C133.882 92.95 134.182 92.47 134.802 92.47L136.362 92.47L136.362 89.87C136.362 89.19 136.922 88.75 137.862 88.75C138.802 88.75 139.362 89.19 139.362 89.87L139.362 98.05C139.362 98.73 138.802 99.17 137.862 99.17C136.922 99.17 136.362 98.73 136.362 98.05L136.362 94.83L134.802 94.83C134.182 94.83 133.882 94.39 133.882 93.67ZM133.242 105.71C136.042 105.71 136.362 105.47 136.362 104.63L136.362 103.05C136.362 102.49 136.142 102.27 135.582 102.27L131.082 102.27C130.542 102.27 130.322 102.49 130.242 103.01C130.162 103.49 130.122 104.13 130.122 104.63C130.122 105.47 130.442 105.71 133.242 105.71ZM133.242 108.07C128.142 108.07 127.122 107.07 127.122 104.89C127.122 103.99 127.242 102.89 127.402 102.01C127.662 100.57 128.362 99.91 130.002 99.91L136.982 99.91C138.582 99.91 139.362 100.69 139.362 102.29L139.362 104.89C139.362 107.07 138.342 108.07 133.242 108.07ZM152.671 98.07L152.671 89.91C152.671 89.27 153.211 88.89 154.011 88.89C154.811 88.89 155.351 89.27 155.351 89.91L155.351 92.51L156.951 92.51L156.951 89.77C156.951 89.13 157.511 88.75 158.311 88.75C159.111 88.75 159.671 89.13 159.671 89.77L159.671 98.27C159.671 98.97 159.111 99.31 158.311 99.31C157.511 99.31 156.951 98.97 156.951 98.27L156.951 94.87L155.351 94.87L155.351 98.07C155.351 98.77 154.811 99.11 154.011 99.11C153.211 99.11 152.671 98.77 152.671 98.07ZM156.211 106.39C156.471 105.47 156.611 104.39 156.611 103.53C156.611 102.81 156.331 102.53 155.611 102.53L148.051 102.53C147.371 102.53 146.971 102.01 146.971 101.31C146.971 100.61 147.371 100.05 148.051 100.05L156.671 100.05C158.771 100.05 159.671 100.95 159.671 102.85C159.671 104.29 159.491 105.77 159.051 107.09C158.811 107.83 158.111 108.11 157.271 107.91C156.411 107.71 155.991 107.19 156.211 106.39ZM149.151 90.25L149.151 91.27C149.151 91.91 149.031 92.61 148.791 93.31L151.731 96.19C152.271 96.73 152.311 97.55 151.771 98.13C151.251 98.69 150.431 98.77 149.851 98.15L147.631 95.75C146.911 96.87 145.991 97.91 144.931 98.65C144.291 99.11 143.511 99.11 142.991 98.55C142.471 97.99 142.491 97.15 143.111 96.69C145.151 95.19 146.111 93.25 146.111 91.47L146.111 90.25C146.111 89.51 146.771 89.09 147.631 89.09C148.491 89.09 149.151 89.51 149.151 90.25ZM182.587 98.57C184.187 98.57 184.987 99.25 184.987 100.57L184.987 102.29C184.987 103.61 184.187 104.29 182.587 104.29L176.407 104.29C176.347 104.57 176.307 104.89 176.307 105.15C176.307 105.73 176.727 105.97 178.647 105.97C180.427 105.97 182.767 105.69 183.847 105.37C184.607 105.15 185.167 105.41 185.347 106.03C185.527 106.63 185.367 107.23 184.627 107.45C183.327 107.83 180.927 108.17 178.647 108.17C174.687 108.17 173.227 107.41 173.227 105.69C173.227 105.23 173.327 104.73 173.487 104.29C172.987 104.25 172.627 103.83 172.627 103.23C172.627 102.61 172.987 102.17 173.587 102.17L181.327 102.17C181.727 102.17 181.867 102.07 181.867 101.77L181.867 101.17C181.867 100.87 181.707 100.77 181.327 100.77L173.887 100.77C173.307 100.77 172.947 100.29 172.947 99.67C172.947 99.05 173.307 98.57 173.887 98.57L182.587 98.57ZM171.267 91.69C170.387 91.69 169.987 91.17 169.987 90.49C169.987 89.81 170.387 89.29 171.267 89.29L176.347 89.29C178.207 89.29 179.147 90.25 179.147 92.19C179.147 95.13 176.067 97.51 170.927 98.21C170.107 98.33 169.627 97.97 169.487 97.29C169.347 96.59 169.647 96.01 170.527 95.87C173.807 95.33 176.047 93.85 176.047 92.49C176.047 91.89 175.847 91.69 175.247 91.69L171.267 91.69ZM179.387 95.43C179.387 94.75 179.707 94.31 180.327 94.31L181.987 94.31L181.987 92.71L180.467 92.71C179.847 92.71 179.527 92.31 179.527 91.63C179.527 90.95 179.847 90.51 180.467 90.51L181.987 90.51L181.987 89.87C181.987 89.19 182.547 88.75 183.487 88.75C184.427 88.75 184.987 89.19 184.987 89.87L184.987 96.73C184.987 97.41 184.427 97.85 183.487 97.85C182.547 97.85 181.987 97.41 181.987 96.73L181.987 96.51L180.327 96.51C179.707 96.51 179.387 96.11 179.387 95.43ZM201.036 104.27L201.036 89.83C201.036 89.17 201.616 88.75 202.516 88.75C203.416 88.75 203.996 89.17 203.996 89.83L203.996 94.83L205.916 94.83C206.596 94.83 206.996 95.33 206.996 96.03C206.996 96.73 206.596 97.23 205.916 97.23L203.996 97.23L203.996 104.27C203.996 104.93 203.416 105.35 202.516 105.35C201.616 105.35 201.036 104.93 201.036 104.27ZM198.896 100.51C199.616 100.35 200.176 100.65 200.336 101.27C200.496 101.91 200.276 102.49 199.496 102.73C198.616 103.01 197.216 103.17 196.036 103.17L189.276 103.17C188.596 103.17 188.196 102.69 188.196 101.99C188.196 101.29 188.596 100.77 189.276 100.77L191.576 100.77L191.576 95.81C191.576 95.11 192.136 94.69 192.996 94.69C193.856 94.69 194.456 95.11 194.456 95.81L194.456 100.77L196.216 100.77C197.216 100.77 198.156 100.67 198.896 100.51ZM190.456 91.93C189.796 91.93 189.336 91.49 189.336 90.73C189.336 89.97 189.796 89.53 190.456 89.53L196.156 89.53C198.356 89.53 199.356 90.53 199.356 92.73C199.356 94.53 199.136 96.65 198.676 98.17C198.436 98.99 197.756 99.21 196.976 99.03C196.196 98.85 195.796 98.31 195.976 97.55C196.296 96.17 196.476 94.67 196.476 93.33C196.476 92.33 196.076 91.93 195.076 91.93L190.456 91.93ZM210.346 102.49C209.526 102.77 208.766 102.55 208.446 101.79C208.126 101.03 208.406 100.23 209.166 99.95C212.766 98.61 214.726 96.09 214.726 93.69C214.726 92.69 214.266 92.29 213.126 92.29L209.706 92.29C209.026 92.29 208.586 91.81 208.586 91.07C208.586 90.33 209.026 89.85 209.706 89.85L214.646 89.85C216.706 89.85 217.846 91.01 217.846 93.15C217.846 97.33 215.006 100.89 210.346 102.49ZM220.206 104.21L220.206 89.87C220.206 89.13 220.906 88.75 221.706 88.75C222.506 88.75 223.206 89.13 223.206 89.87L223.206 94.51L225.326 94.51C226.006 94.51 226.406 95.07 226.406 95.73C226.406 96.39 226.006 96.91 225.326 96.91L223.206 96.91L223.206 104.25C223.206 104.91 222.506 105.35 221.706 105.35C220.906 105.35 220.206 104.89 220.206 104.21ZM234.341 93.41C234.341 90.57 236.581 88.83 239.541 88.83C242.501 88.83 244.741 90.57 244.741 93.41C244.741 96.25 242.501 97.99 239.541 97.99C236.581 97.99 234.341 96.25 234.341 93.41ZM239.501 100.45C239.421 100.93 239.361 101.47 239.301 102.01L241.461 102.01L241.461 100.33C241.461 99.71 241.861 99.31 242.701 99.31C243.501 99.31 243.941 99.71 243.941 100.33L243.941 105.19C243.941 107.47 243.061 108.17 240.301 108.17C237.541 108.17 236.661 107.47 236.661 105.19C236.661 103.23 236.861 101.45 237.081 100.19C237.181 99.57 237.621 99.21 238.441 99.31C239.241 99.39 239.601 99.83 239.501 100.45ZM249.221 100.45L249.221 101.49C249.221 102.05 249.101 102.67 248.901 103.33L251.261 105.71C251.841 106.29 251.821 106.99 251.281 107.53C250.781 108.03 249.941 108.09 249.421 107.47L247.861 105.59C247.381 106.39 246.801 107.15 246.181 107.73C245.621 108.25 244.861 108.07 244.421 107.65C243.921 107.19 243.801 106.47 244.381 105.89C245.601 104.67 246.501 102.87 246.501 101.49L246.501 100.45C246.501 99.71 247.021 99.29 247.861 99.29C248.701 99.29 249.221 99.71 249.221 100.45ZM245.141 93.33C245.141 92.61 245.441 92.13 246.061 92.13L247.461 92.13L247.461 89.87C247.461 89.19 248.001 88.75 248.941 88.75C249.881 88.75 250.421 89.19 250.421 89.87L250.421 97.45C250.421 98.13 249.881 98.57 248.941 98.57C248.001 98.57 247.461 98.13 247.461 97.45L247.461 94.49L246.061 94.49C245.441 94.49 245.141 94.05 245.141 93.33ZM237.301 93.41C237.301 94.77 238.221 95.65 239.541 95.65C240.861 95.65 241.781 94.77 241.781 93.41C241.781 92.05 240.861 91.17 239.541 91.17C238.221 91.17 237.301 92.05 237.301 93.41ZM241.461 103.95L239.181 103.95C239.161 104.29 239.161 104.63 239.161 104.97C239.161 105.85 239.301 106.03 240.301 106.03C241.301 106.03 241.461 105.85 241.461 104.97L241.461 103.95ZM263.671 104.07L263.671 96.25L260.791 96.25C260.111 96.25 259.711 95.73 259.711 95.05C259.711 94.37 260.111 93.81 260.791 93.81L263.671 93.81L263.671 89.91C263.671 89.27 264.311 88.89 265.051 88.89C265.791 88.89 266.431 89.27 266.431 89.91L266.431 104.05C266.431 104.71 265.791 105.05 265.051 105.05C264.311 105.05 263.671 104.71 263.671 104.07ZM257.771 91.15C257.371 92.85 257.031 95.43 257.031 97.43C257.031 99.31 257.531 99.83 258.811 99.83C259.771 99.83 260.491 99.69 261.271 99.45C262.051 99.21 262.631 99.41 262.871 100.11C263.111 100.83 262.951 101.47 262.251 101.75C261.151 102.19 260.091 102.39 258.811 102.39C255.611 102.39 254.111 101.19 254.111 97.43C254.111 94.91 254.431 92.31 254.911 90.47C255.151 89.57 255.971 89.31 256.771 89.49C257.571 89.67 257.991 90.25 257.771 91.15ZM267.931 104.31L267.931 89.77C267.931 89.13 268.531 88.75 269.331 88.75C270.131 88.75 270.731 89.13 270.731 89.77L270.731 104.35C270.731 105.01 270.131 105.35 269.331 105.35C268.531 105.35 267.931 105.01 267.931 104.31ZM280.48 97.81L280.48 97.27C280.48 96.75 281.1 96.41 282.04 96.41C282.98 96.41 283.6 96.75 283.6 97.27L283.6 97.81L290 97.81C290.68 97.81 291.08 98.29 291.08 98.99C291.08 99.69 290.68 100.17 290 100.17L274.08 100.17C273.4 100.17 273 99.69 273 98.99C273 98.29 273.4 97.81 274.08 97.81L280.48 97.81ZM275.92 104.65C275.92 102.25 278.36 100.79 282.04 100.79C285.72 100.79 288.16 102.25 288.16 104.65C288.16 107.05 285.72 108.51 282.04 108.51C278.36 108.51 275.92 107.05 275.92 104.65ZM279.08 104.65C279.08 105.67 280.18 106.27 282.04 106.27C283.9 106.27 285 105.67 285 104.65C285 103.63 283.9 103.03 282.04 103.03C280.18 103.03 279.08 103.63 279.08 104.65ZM276.02 92.25C276.02 89.83 278.4 88.35 282.04 88.35C285.68 88.35 288.06 89.83 288.06 92.25C288.06 94.67 285.68 96.15 282.04 96.15C278.4 96.15 276.02 94.67 276.02 92.25ZM279.14 92.25C279.14 93.27 280.2 93.91 282.04 93.91C283.88 93.91 284.94 93.27 284.94 92.25C284.94 91.23 283.88 90.59 282.04 90.59C280.2 90.59 279.14 91.23 279.14 92.25ZM296.67 103.29C296.67 104.29 295.93 105.07 294.85 105.07C293.77 105.07 293.03 104.29 293.03 103.29C293.03 102.29 293.79 101.51 294.85 101.51C295.91 101.51 296.67 102.29 296.67 103.29ZM302.666 103.29C302.666 104.29 301.926 105.07 300.846 105.07C299.766 105.07 299.026 104.29 299.026 103.29C299.026 102.29 299.786 101.51 300.846 101.51C301.906 101.51 302.666 102.29 302.666 103.29ZM308.662 103.29C308.662 104.29 307.922 105.07 306.842 105.07C305.762 105.07 305.022 104.29 305.022 103.29C305.022 102.29 305.782 101.51 306.842 101.51C307.902 101.51 308.662 102.29 308.662 103.29ZM132.956 127.89C132.956 126.19 133.236 124.53 133.716 123.05C133.116 122.99 132.756 122.47 132.756 121.87C132.756 121.23 133.156 120.65 133.836 120.65L141.136 120.65C141.816 120.65 142.216 121.23 142.216 121.87C142.216 122.51 141.816 123.05 141.136 123.05L136.556 123.05C136.196 124.55 135.996 126.21 135.996 127.89C135.996 130.17 136.636 130.85 138.336 130.89C139.736 130.93 141.096 130.61 141.916 130.27C142.656 129.97 143.316 130.23 143.536 130.89C143.776 131.61 143.596 132.25 142.956 132.55C141.736 133.11 140.376 133.45 138.356 133.45C134.756 133.45 132.956 132.05 132.956 127.89ZM144.556 135.21L144.556 120.87C144.556 120.13 145.256 119.75 146.056 119.75C146.856 119.75 147.556 120.13 147.556 120.87L147.556 125.51L149.476 125.51C150.156 125.51 150.556 126.07 150.556 126.73C150.556 127.39 150.156 127.91 149.476 127.91L147.556 127.91L147.556 135.25C147.556 135.91 146.856 136.35 146.056 136.35C145.256 136.35 144.556 135.89 144.556 135.21ZM159.626 121.61L159.626 123.77C159.626 124.61 159.446 125.53 159.146 126.49L163.266 130.57C163.926 131.19 163.926 132.07 163.286 132.67C162.726 133.21 161.846 133.27 161.226 132.63L157.966 129.03C157.086 130.53 155.846 131.95 154.386 132.99C153.686 133.49 152.906 133.47 152.366 132.87C151.846 132.31 151.846 131.45 152.506 130.91C155.246 128.69 156.506 126.15 156.506 123.77L156.506 121.61C156.506 120.87 157.126 120.43 158.066 120.43C159.006 120.43 159.626 120.87 159.626 121.61ZM168.366 120.87L168.366 135.23C168.366 135.91 167.806 136.35 166.866 136.35C165.926 136.35 165.366 135.91 165.366 135.23L165.366 120.87C165.366 120.19 165.926 119.75 166.866 119.75C167.806 119.75 168.366 120.19 168.366 120.87ZM179.901 130.09C179.141 130.19 178.581 129.87 178.441 129.13C178.301 128.37 178.681 127.75 179.441 127.63C182.761 127.13 185.001 125.31 185.001 123.81C185.001 123.07 184.741 122.81 184.001 122.81L180.161 122.81C179.321 122.81 178.881 122.29 178.881 121.61C178.881 120.93 179.281 120.41 180.161 120.41L184.921 120.41C187.281 120.41 188.121 121.47 188.121 123.61C188.121 126.61 184.741 129.45 179.901 130.09ZM188.501 124.67C188.501 123.95 188.801 123.47 189.421 123.47L190.981 123.47L190.981 120.87C190.981 120.19 191.541 119.75 192.481 119.75C193.421 119.75 193.981 120.19 193.981 120.87L193.981 129.05C193.981 129.73 193.421 130.17 192.481 130.17C191.541 130.17 190.981 129.73 190.981 129.05L190.981 125.83L189.421 125.83C188.801 125.83 188.501 125.39 188.501 124.67ZM187.861 136.71C190.661 136.71 190.981 136.47 190.981 135.63L190.981 134.05C190.981 133.49 190.761 133.27 190.201 133.27L185.701 133.27C185.161 133.27 184.941 133.49 184.861 134.01C184.781 134.49 184.741 135.13 184.741 135.63C184.741 136.47 185.061 136.71 187.861 136.71ZM187.861 139.07C182.761 139.07 181.741 138.07 181.741 135.89C181.741 134.99 181.861 133.89 182.021 133.01C182.281 131.57 182.981 130.91 184.621 130.91L191.601 130.91C193.201 130.91 193.981 131.69 193.981 133.29L193.981 135.89C193.981 138.07 192.961 139.07 187.861 139.07ZM207.291 129.07L207.291 120.91C207.291 120.27 207.831 119.89 208.631 119.89C209.431 119.89 209.971 120.27 209.971 120.91L209.971 123.51L211.571 123.51L211.571 120.77C211.571 120.13 212.131 119.75 212.931 119.75C213.731 119.75 214.291 120.13 214.291 120.77L214.291 129.27C214.291 129.97 213.731 130.31 212.931 130.31C212.131 130.31 211.571 129.97 211.571 129.27L211.571 125.87L209.971 125.87L209.971 129.07C209.971 129.77 209.431 130.11 208.631 130.11C207.831 130.11 207.291 129.77 207.291 129.07ZM210.831 137.39C211.091 136.47 211.231 135.39 211.231 134.53C211.231 133.81 210.951 133.53 210.231 133.53L202.671 133.53C201.991 133.53 201.591 133.01 201.591 132.31C201.591 131.61 201.991 131.05 202.671 131.05L211.291 131.05C213.391 131.05 214.291 131.95 214.291 133.85C214.291 135.29 214.111 136.77 213.671 138.09C213.431 138.83 212.731 139.11 211.891 138.91C211.031 138.71 210.611 138.19 210.831 137.39ZM203.771 121.25L203.771 122.27C203.771 122.91 203.651 123.61 203.411 124.31L206.351 127.19C206.891 127.73 206.931 128.55 206.391 129.13C205.871 129.69 205.051 129.77 204.471 129.15L202.251 126.75C201.531 127.87 200.611 128.91 199.551 129.65C198.911 130.11 198.131 130.11 197.611 129.55C197.091 128.99 197.111 128.15 197.731 127.69C199.771 126.19 200.731 124.25 200.731 122.47L200.731 121.25C200.731 120.51 201.391 120.09 202.251 120.09C203.111 120.09 203.771 120.51 203.771 121.25ZM217.26 129.49C217.26 126.75 219.02 125.05 221.66 125.05C224.3 125.05 226.06 126.75 226.06 129.49C226.06 132.23 224.3 133.93 221.66 133.93C219.02 133.93 217.26 132.23 217.26 129.49ZM219.94 129.49C219.94 130.85 220.56 131.73 221.66 131.73C222.76 131.73 223.38 130.85 223.38 129.49C223.38 128.13 222.76 127.25 221.66 127.25C220.56 127.25 219.94 128.13 219.94 129.49ZM231.38 135.31L231.38 128.43L229.7 128.43L229.7 135.05C229.7 135.71 229.12 136.05 228.38 136.05C227.64 136.05 227.06 135.71 227.06 135.07L227.06 120.91C227.06 120.27 227.64 119.89 228.38 119.89C229.12 119.89 229.7 120.27 229.7 120.91L229.7 126.07L231.38 126.07L231.38 120.77C231.38 120.13 231.94 119.75 232.74 119.75C233.54 119.75 234.1 120.13 234.1 120.77L234.1 135.35C234.1 136.01 233.54 136.35 232.74 136.35C231.94 136.35 231.38 136.01 231.38 135.31ZM223.06 122.19L225.5 122.19C226.12 122.19 226.52 122.63 226.52 123.31C226.52 123.99 226.12 124.43 225.5 124.43L217.52 124.43C216.9 124.43 216.5 123.99 216.5 123.31C216.5 122.63 216.9 122.19 217.52 122.19L220.18 122.19L220.18 120.47C220.18 119.87 220.76 119.51 221.62 119.51C222.48 119.51 223.06 119.87 223.06 120.47L223.06 122.19ZM257.296 122.63L253.356 122.63L253.356 122.97C253.356 123.31 253.276 123.65 253.176 123.99L258.296 126.15C259.116 126.51 259.256 127.29 258.936 127.99C258.636 128.65 257.936 128.87 257.196 128.51L251.856 125.95C250.556 127.19 248.536 128.21 246.096 128.69C245.256 128.85 244.676 128.57 244.496 127.91C244.316 127.23 244.536 126.51 245.356 126.31C248.436 125.57 250.276 124.17 250.276 122.97L250.276 122.63L246.336 122.63C245.656 122.63 245.256 122.11 245.256 121.43C245.256 120.75 245.656 120.23 246.336 120.23L257.296 120.23C257.976 120.23 258.376 120.75 258.376 121.43C258.376 122.11 257.976 122.63 257.296 122.63ZM243.896 132.59C243.236 132.59 242.776 132.17 242.776 131.41C242.776 130.65 243.236 130.23 243.896 130.23L259.736 130.23C260.396 130.23 260.856 130.65 260.856 131.41C260.856 132.17 260.396 132.59 259.736 132.59L253.316 132.59L253.316 136.89C253.316 137.59 252.756 138.03 251.816 138.03C250.876 138.03 250.316 137.59 250.316 136.89L250.316 132.59L243.896 132.59ZM268.785 121.61L268.785 124.29C268.785 125.13 268.625 126.07 268.345 127.03L271.605 130.71C272.225 131.41 272.105 132.23 271.485 132.77C270.885 133.29 270.145 133.23 269.545 132.55L267.265 129.63C266.605 130.85 265.725 131.99 264.685 132.93C263.985 133.55 263.205 133.43 262.685 132.89C262.205 132.41 262.145 131.57 262.805 130.99C264.805 129.23 265.745 126.53 265.745 124.39L265.745 121.61C265.745 120.87 266.325 120.43 267.265 120.43C268.205 120.43 268.785 120.87 268.785 121.61ZM272.885 135.07L272.885 127.57L270.805 127.57C270.185 127.57 269.825 127.13 269.825 126.41C269.825 125.69 270.185 125.21 270.805 125.21L272.885 125.21L272.885 120.91C272.885 120.27 273.445 119.89 274.245 119.89C275.045 119.89 275.605 120.27 275.605 120.91L275.605 135.05C275.605 135.71 275.045 136.05 274.245 136.05C273.445 136.05 272.885 135.71 272.885 135.07ZM276.965 135.31L276.965 120.77C276.965 120.13 277.545 119.75 278.345 119.75C279.145 119.75 279.725 120.13 279.725 120.77L279.725 135.35C279.725 136.01 279.145 136.35 278.345 136.35C277.545 136.35 276.965 136.01 276.965 135.31ZM289.474 128.81L289.474 128.27C289.474 127.75 290.094 127.41 291.034 127.41C291.974 127.41 292.594 127.75 292.594 128.27L292.594 128.81L298.994 128.81C299.674 128.81 300.074 129.29 300.074 129.99C300.074 130.69 299.674 131.17 298.994 131.17L283.074 131.17C282.394 131.17 281.994 130.69 281.994 129.99C281.994 129.29 282.394 128.81 283.074 128.81L289.474 128.81ZM284.914 135.65C284.914 133.25 287.354 131.79 291.034 131.79C294.714 131.79 297.154 133.25 297.154 135.65C297.154 138.05 294.714 139.51 291.034 139.51C287.354 139.51 284.914 138.05 284.914 135.65ZM288.074 135.65C288.074 136.67 289.174 137.27 291.034 137.27C292.894 137.27 293.994 136.67 293.994 135.65C293.994 134.63 292.894 134.03 291.034 134.03C289.174 134.03 288.074 134.63 288.074 135.65ZM285.014 123.25C285.014 120.83 287.394 119.35 291.034 119.35C294.674 119.35 297.054 120.83 297.054 123.25C297.054 125.67 294.674 127.15 291.034 127.15C287.394 127.15 285.014 125.67 285.014 123.25ZM288.134 123.25C288.134 124.27 289.194 124.91 291.034 124.91C292.874 124.91 293.934 124.27 293.934 123.25C293.934 122.23 292.874 121.59 291.034 121.59C289.194 121.59 288.134 122.23 288.134 123.25Z" fill="#000000" fill-rule="nonzero" opacity="1" stroke="none" vectornator:layerName="path"/>
<path d="M170.457 206.317C170.457 196.164 175.548 187.934 181.828 187.934C188.109 187.934 193.2 196.164 193.2 206.317C193.2 216.471 188.109 224.701 181.828 224.701C175.548 224.701 170.457 216.471 170.457 206.317Z" fill="#ffffff" fill-rule="nonzero" opacity="1" stroke="none" vectornator:layerName="path"/>
<path d="M171.504 193.453C171.504 189.161 173.979 185.682 177.032 185.682C180.085 185.682 182.56 189.161 182.56 193.453C182.56 197.745 180.085 201.224 177.032 201.224C173.979 201.224 171.504 197.745 171.504 193.453Z" fill="#ffffff" fill-rule="nonzero" opacity="1" stroke="none" vectornator:layerName="path"/>
<path d="M178.032 230.945C178.032 210.238 196.382 193.453 219.016 193.453C241.651 193.453 260.001 210.238 260.001 230.945C260.001 251.651 241.651 268.436 219.016 268.436C196.382 268.436 178.032 251.651 178.032 230.945Z" fill="#ffffff" fill-rule="nonzero" opacity="1" stroke="none" vectornator:layerName="path"/>
<path d="M167.457 249.091C167.457 238.407 178.328 229.746 191.737 229.746C205.146 229.746 216.016 238.407 216.016 249.091C216.016 259.775 205.146 268.436 191.737 268.436C178.328 268.436 167.457 259.775 167.457 249.091Z" fill="#ffffff" fill-rule="nonzero" opacity="1" stroke="none" vectornator:layerName="path"/>
<path d="M200.619 265.711C200.619 264.206 203.356 262.986 206.732 262.986C210.108 262.986 212.845 264.206 212.845 265.711C212.845 267.216 210.108 268.436 206.732 268.436C203.356 268.436 200.619 267.216 200.619 265.711Z" fill="#ffffff" fill-rule="nonzero" opacity="1" stroke="none" vectornator:layerName="path"/>
<path d="M235.609 244.914C235.609 234.38 246.07 225.842 258.973 225.842C271.877 225.842 282.338 234.38 282.338 244.914C282.338 255.447 271.877 263.986 258.973 263.986C246.07 263.986 235.609 255.447 235.609 244.914Z" fill="#ffffff" fill-rule="nonzero" opacity="1" stroke="none" vectornator:layerName="path"/>
<path d="M212.845 261.386C212.845 256.94 224.198 253.336 238.202 253.336C252.206 253.336 263.559 256.94 263.559 261.386C263.559 265.832 252.206 269.436 238.202 269.436C224.198 269.436 212.845 265.832 212.845 261.386Z" fill="#ffffff" fill-rule="nonzero" opacity="1" stroke="none" vectornator:layerName="path"/>
<path d="M237.992 204.628C237.992 197.026 242.689 190.863 248.483 190.863C254.277 190.863 258.973 197.026 258.973 204.628C258.973 212.231 254.277 218.394 248.483 218.394C242.689 218.394 237.992 212.231 237.992 204.628Z" fill="#ffffff" fill-rule="nonzero" opacity="1" stroke="none" vectornator:layerName="path"/>
<path d="M235.609 196C235.609 190.301 241.069 185.682 247.805 185.682C254.54 185.682 260.001 190.301 260.001 196C260.001 201.698 254.54 206.317 247.805 206.317C241.069 206.317 235.609 201.698 235.609 196Z" fill="#ffffff" fill-rule="nonzero" opacity="1" stroke="none" vectornator:layerName="path"/>
<path d="M247.805 188.509C247.805 184.372 250.535 181.018 253.903 181.018C257.27 181.018 260.001 184.372 260.001 188.509C260.001 192.646 257.27 196 253.903 196C250.535 196 247.805 192.646 247.805 188.509Z" fill="#ffffff" fill-rule="nonzero" opacity="1" stroke="none" vectornator:layerName="path"/>
<path d="M173.586 215.798C173.586 216.597 177.263 220.763 177.916 221.416" fill="none" opacity="1" stroke="#000000" stroke-linecap="round" stroke-linejoin="round" stroke-width="4" vectornator:layerName="path"/>
<path d="M256.709 178.12C255.374 178.12 254.485 178.248 254.04 178.503C253.595 178.759 252.833 179.015 251.752 179.27C250.672 179.526 248.925 180.388 246.51 181.858C244.095 183.328 241.712 184.957 239.361 186.746C237.01 188.536 235.612 189.654 235.167 190.101C234.722 190.548 234.373 191.155 234.119 191.922C233.992 192.306 233.865 192.689 233.737 193.072C233.229 192.849 232.721 192.625 232.212 192.401C231.196 191.954 229.448 191.603 226.97 191.347C224.492 191.092 221.886 190.964 219.154 190.964C216.421 190.964 214.896 191.06 214.579 191.251C214.261 191.443 213.149 191.635 211.242 191.826C209.336 192.018 208.002 192.274 207.239 192.593C206.477 192.913 205.682 193.136 204.856 193.264C204.03 193.392 203.172 193.679 202.283 194.127C201.393 194.574 200.44 194.925 199.423 195.181C198.406 195.437 197.517 195.82 196.754 196.331C196.373 196.587 195.992 196.842 195.61 197.098C195.42 196.683 195.229 196.267 195.038 195.852C194.657 195.021 194.053 194.191 193.227 193.36C192.401 192.529 191.67 191.954 191.035 191.635C190.4 191.315 189.637 190.74 188.747 189.909C187.858 189.079 186.492 187.992 184.649 186.651C182.806 185.309 181.44 184.446 180.55 184.063C179.66 183.679 178.739 183.424 177.786 183.296C176.833 183.168 175.975 183.104 175.212 183.104C174.45 183.104 173.719 183.232 173.02 183.487C172.321 183.743 171.717 184.222 171.209 184.925C170.701 185.628 170.288 186.619 169.97 187.897C169.652 189.175 169.303 192.05 168.921 196.523C168.54 200.996 168.445 204.382 168.635 206.683C168.826 208.983 169.366 211.252 170.256 213.488C171.146 215.725 171.844 217.226 172.353 217.993C172.861 218.76 173.433 219.175 174.069 219.239C174.704 219.303 175.244 219.143 175.689 218.76C176.134 218.376 176.356 217.833 176.356 217.131C176.356 216.428 176.102 215.725 175.594 215.022C175.085 214.319 174.545 213.233 173.973 211.763C173.401 210.293 173.02 208.824 172.829 207.354C172.639 205.884 172.671 203.137 172.925 199.111C173.179 195.085 173.497 192.146 173.878 190.293C174.259 188.44 174.926 187.481 175.88 187.417C176.833 187.353 177.691 187.481 178.453 187.801C179.216 188.12 181.345 189.59 184.839 192.21C188.334 194.83 190.241 196.299 190.559 196.619C190.876 196.938 191.162 197.418 191.416 198.057C191.67 198.696 190.908 199.654 189.129 200.932C187.35 202.21 186.047 203.392 185.221 204.479C184.395 205.565 183.664 206.747 183.028 208.025C182.393 209.303 181.217 211.955 179.502 215.98C177.786 220.006 176.865 223.009 176.737 224.99C176.61 226.971 176.642 228.313 176.833 229.016C177.023 229.719 177.055 230.262 176.928 230.645C176.801 231.029 175.848 231.54 174.069 232.179C172.289 232.818 171.05 233.521 170.351 234.288C169.652 235.054 169.08 235.853 168.635 236.684C168.191 237.514 167.746 238.792 167.301 240.518C166.856 242.243 166.507 243.329 166.253 243.777C165.998 244.224 165.871 244.799 165.871 245.502C165.871 246.205 165.808 246.62 165.681 246.748C165.554 246.876 165.077 247.067 164.251 247.323C163.425 247.579 162.186 248.122 160.533 248.952C158.881 249.783 157.324 250.869 155.863 252.211C154.401 253.553 153.766 254.607 153.957 255.374C154.147 256.141 154.624 256.588 155.386 256.716C156.149 256.844 157.102 256.365 158.246 255.278C159.39 254.192 160.565 253.329 161.773 252.691C162.98 252.051 163.901 251.668 164.537 251.54C164.855 251.476 165.172 251.412 165.49 251.349C165.554 252.211 165.617 253.074 165.681 253.937C165.808 255.662 166.094 256.876 166.538 257.579C166.983 258.282 167.206 258.825 167.206 259.208C167.206 259.592 166.952 259.847 166.443 259.975C165.935 260.103 165.172 260.454 164.156 261.029C163.139 261.604 162.376 262.179 161.868 262.755C161.36 263.33 161.137 263.937 161.201 264.576C161.264 265.215 161.487 265.662 161.868 265.918C162.249 266.173 162.694 266.301 163.202 266.301C163.711 266.301 164.187 266.045 164.632 265.534C165.077 265.023 165.998 264.416 167.396 263.713C168.794 263.01 169.62 262.659 169.875 262.659C170.129 262.659 171.05 263.394 172.639 264.863C174.227 266.333 176.579 267.515 179.692 268.41C182.806 269.304 185.729 269.72 188.462 269.656C191.194 269.592 193.005 269.656 193.895 269.847C194.784 270.039 196.15 270.103 197.993 270.039C199.836 269.975 201.488 270.071 202.95 270.327C204.411 270.582 206.89 270.71 210.385 270.71C213.879 270.71 216.803 270.838 219.154 271.094C221.505 271.349 225.413 271.477 230.878 271.477C236.343 271.477 239.87 271.317 241.458 270.998C243.047 270.678 245.398 270.454 248.512 270.327C251.625 270.199 254.358 269.879 256.709 269.368C259.06 268.857 260.585 268.346 261.284 267.835C261.983 267.323 262.682 267.036 263.381 266.972C264.08 266.908 265.065 266.62 266.336 266.109C267.607 265.598 268.687 264.959 269.577 264.192C270.466 263.425 271.801 262.499 273.58 261.413C275.359 260.326 276.821 259.144 277.965 257.866C279.109 256.588 280.062 255.246 280.824 253.841C281.587 252.435 282.603 251.7 283.874 251.636C285.145 251.572 285.844 251.476 285.971 251.349C286.099 251.221 286.13 250.71 286.067 249.815C286.003 248.92 285.844 248.345 285.59 248.09C285.336 247.834 284.891 247.674 284.256 247.611C283.62 247.547 283.303 246.365 283.303 244.064C283.303 242.914 283.303 241.764 283.303 240.614C283.938 240.645 284.573 240.677 285.209 240.709C286.48 240.773 287.751 240.997 289.022 241.38C290.293 241.764 291.023 241.828 291.214 241.572C291.405 241.316 291.468 240.773 291.405 239.943C291.341 239.112 291.182 238.569 290.928 238.313C290.674 238.057 290.102 237.738 289.212 237.355C288.323 236.971 287.02 236.716 285.304 236.588C283.588 236.46 282.508 235.821 282.063 234.671C281.619 233.521 280.92 232.211 279.966 230.741C279.013 229.271 278.06 228.153 277.107 227.386C276.154 226.619 275.232 226.013 274.343 225.565C273.453 225.118 272.69 224.766 272.055 224.511C271.42 224.255 269.863 224.128 267.384 224.128C264.906 224.128 263.349 224.255 262.714 224.511C262.079 224.766 261.602 224.894 261.284 224.894C260.966 224.894 260.744 224.798 260.617 224.607C260.49 224.415 260.426 223.52 260.426 221.923C260.426 220.325 260.204 218.728 259.759 217.131C259.314 215.533 258.965 214.511 258.711 214.063C258.583 213.84 258.456 213.616 258.329 213.392C258.552 213.36 258.774 213.328 258.997 213.297C259.441 213.233 259.854 213.041 260.236 212.722C260.617 212.402 261.062 211.38 261.57 209.654C262.079 207.929 262.428 203.232 262.619 195.565C262.809 187.897 262.777 183.551 262.523 182.529C262.269 181.507 261.888 180.644 261.379 179.941C260.871 179.238 260.299 178.759 259.664 178.503C259.028 178.248 258.043 178.12 256.709 178.12ZM256.042 182.337C256.296 182.337 256.677 182.625 257.186 183.2C257.694 183.775 258.107 184.638 258.425 185.788C258.742 186.938 258.838 190.261 258.711 195.756C258.583 201.251 258.361 204.926 258.043 206.779C257.726 208.632 257.44 209.782 257.186 210.229C257.058 210.453 256.931 210.677 256.804 210.9C256.328 210.229 255.851 209.559 255.374 208.888C254.421 207.545 252.864 205.756 250.704 203.52C248.543 201.283 246.859 199.846 245.652 199.207C244.445 198.568 243.523 197.961 242.888 197.386C242.252 196.81 241.331 196.299 240.124 195.852C238.916 195.405 238.217 195.021 238.027 194.702C237.836 194.382 237.741 194.095 237.741 193.839C237.741 193.584 238.122 193.072 238.885 192.306C239.647 191.539 240.982 190.453 242.888 189.047C244.794 187.641 246.287 186.682 247.368 186.171C248.448 185.66 249.433 185.085 250.323 184.446C251.212 183.807 252.324 183.296 253.659 182.912C254.993 182.529 255.788 182.337 256.042 182.337ZM219.964 194.87C220.758 194.886 221.6 194.925 222.49 194.989C224.269 195.117 225.127 196.012 225.063 197.673C225 199.334 225.127 201.283 225.445 203.52C225.763 205.756 226.175 207.514 226.684 208.792C227.192 210.07 227.891 211.252 228.781 212.338C229.671 213.424 230.941 214.383 232.594 215.214C234.246 216.044 236.565 216.843 239.552 217.61C242.538 218.377 244.667 218.984 245.938 219.431C247.209 219.878 248.702 220.581 250.418 221.54C252.134 222.498 253.563 223.073 254.707 223.265C255.851 223.457 256.677 223.84 257.186 224.415C257.694 224.99 258.012 225.661 258.139 226.428C258.266 227.195 258.552 227.802 258.997 228.249C259.441 228.696 260.109 228.92 260.998 228.92C261.888 228.92 262.619 228.792 263.191 228.537C263.762 228.281 265.065 228.153 267.099 228.153C269.132 228.153 270.911 228.568 272.436 229.399C273.961 230.23 275.042 230.965 275.677 231.604C276.313 232.243 276.853 233.009 277.298 233.904C277.742 234.799 277.965 235.438 277.965 235.821C277.965 236.013 277.965 236.204 277.965 236.396C277.329 236.396 276.694 236.396 276.058 236.396C274.787 236.396 273.326 236.524 271.674 236.78C270.022 237.035 269.005 237.291 268.624 237.546C268.242 237.802 267.384 238.057 266.05 238.313C264.716 238.569 263.604 238.92 262.714 239.368C261.824 239.815 261.094 240.422 260.522 241.189C259.95 241.955 259.664 242.499 259.664 242.818C259.664 243.137 259.791 243.457 260.045 243.777C260.299 244.096 260.776 244.288 261.475 244.352C262.174 244.416 262.746 244.224 263.191 243.777C263.635 243.329 264.112 242.978 264.62 242.722C265.129 242.467 266.082 242.147 267.48 241.764C268.878 241.38 269.895 241.189 270.53 241.189C271.165 241.189 271.578 241.093 271.769 240.901C271.96 240.709 273.262 240.582 275.677 240.518C276.884 240.486 278.092 240.454 279.299 240.422C279.331 241.285 279.363 242.147 279.395 243.01C279.458 244.735 279.426 245.917 279.299 246.556C279.172 247.195 277.647 247.61 274.724 247.802C271.801 247.994 269.196 248.313 266.908 248.761C264.62 249.208 262.968 249.4 261.951 249.336C260.935 249.272 260.172 249.496 259.664 250.007C259.155 250.518 258.869 250.997 258.806 251.444C258.742 251.892 258.901 252.307 259.282 252.691C259.664 253.074 260.68 253.234 262.333 253.17C263.985 253.106 266.558 252.786 270.053 252.211C273.548 251.636 275.614 251.38 276.249 251.444C276.884 251.508 277.234 251.604 277.298 251.732C277.361 251.86 277.043 252.435 276.344 253.457C275.645 254.48 275.01 255.278 274.438 255.854C273.866 256.429 273.358 256.812 272.913 257.004C272.468 257.195 271.928 257.611 271.293 258.25C270.657 258.889 269.831 259.496 268.814 260.071C267.798 260.646 267.099 261.125 266.717 261.509C266.336 261.892 265.351 262.243 263.762 262.563C262.174 262.882 260.649 263.457 259.187 264.288C257.726 265.119 255.819 265.694 253.468 266.014C251.117 266.333 249.052 266.493 247.272 266.493C245.493 266.493 243.333 266.684 240.791 267.068C238.249 267.451 235.04 267.643 231.164 267.643C227.288 267.643 224.364 267.515 222.395 267.26C220.425 267.004 217.279 266.908 212.958 266.972C208.637 267.036 205.809 266.876 204.475 266.493C203.14 266.109 201.298 265.982 198.946 266.109C196.595 266.237 194.975 266.205 194.085 266.014C193.196 265.822 192.338 265.758 191.512 265.822C190.686 265.886 190.209 265.854 190.082 265.726C189.955 265.598 189.002 265.566 187.222 265.63C185.443 265.694 183.442 265.438 181.217 264.863C178.993 264.288 177.278 263.553 176.07 262.659C174.863 261.764 174.323 261.189 174.45 260.934C174.577 260.678 176.229 260.103 179.406 259.208C182.584 258.314 185.284 257.675 187.508 257.291C189.732 256.908 190.94 256.62 191.13 256.429C191.321 256.237 191.448 255.917 191.512 255.47C191.575 255.023 191.416 254.543 191.035 254.032C190.654 253.521 189.447 253.361 187.413 253.553C185.38 253.745 183.124 254.16 180.645 254.799C178.167 255.438 176.07 256.077 174.355 256.716C172.639 257.355 171.654 257.675 171.4 257.675C171.146 257.675 170.891 257.547 170.637 257.291C170.383 257.036 170.097 256.333 169.779 255.183C169.462 254.032 169.334 252.754 169.398 251.349C169.462 249.943 171.05 248.729 174.164 247.706C177.278 246.684 179.915 246.141 182.075 246.077C184.236 246.013 185.475 245.757 185.793 245.31C186.11 244.863 186.269 244.416 186.269 243.968C186.269 243.521 186.079 243.106 185.697 242.722C185.316 242.339 184.522 242.147 183.314 242.147C182.107 242.147 180.169 242.371 177.5 242.818C174.831 243.265 172.925 243.713 171.781 244.16C171.209 244.383 170.637 244.607 170.065 244.831C170.256 244.064 170.447 243.297 170.637 242.531C171.018 240.997 171.527 239.687 172.162 238.601C172.798 237.514 173.433 236.684 174.069 236.109C174.704 235.533 175.308 235.118 175.88 234.863C176.452 234.607 177.055 234.479 177.691 234.479C178.326 234.479 178.866 234.639 179.311 234.958C179.756 235.278 180.201 235.406 180.645 235.342C181.09 235.278 181.472 235.054 181.789 234.671C182.107 234.287 182.266 233.808 182.266 233.233C182.266 232.658 182.107 232.243 181.789 231.987C181.472 231.731 181.281 231.476 181.217 231.22C181.186 231.093 181.154 230.965 181.122 230.837C181.503 230.837 181.885 230.837 182.266 230.837C183.028 230.837 184.172 230.581 185.697 230.07C187.222 229.559 189.161 228.856 191.512 227.961C193.863 227.067 195.547 226.332 196.564 225.757C197.58 225.182 198.851 224.096 200.376 222.498C201.901 220.901 203.268 219.271 204.475 217.61C205.682 215.948 206.477 214.734 206.858 213.968C207.239 213.201 207.716 211.699 208.288 209.463C208.86 207.226 209.177 205.309 209.241 203.712C209.304 202.114 209.273 201.156 209.145 200.836C209.018 200.517 208.796 200.261 208.478 200.069C208.16 199.878 207.557 199.782 206.667 199.782C205.778 199.782 205.237 199.878 205.047 200.069C204.856 200.261 204.761 200.644 204.761 201.22C204.761 201.795 204.888 202.306 205.142 202.753C205.396 203.2 205.523 203.68 205.523 204.191C205.523 204.702 205.428 205.149 205.237 205.533C205.047 205.916 204.824 206.843 204.57 208.312C204.316 209.782 203.903 211.092 203.331 212.242C202.759 213.392 201.901 214.734 200.758 216.268C199.614 217.802 198.533 219.016 197.517 219.91C196.5 220.805 195.261 221.667 193.799 222.498C192.338 223.329 190.241 224.255 187.508 225.278C184.776 226.3 182.965 226.907 182.075 227.099C181.186 227.291 180.677 227.131 180.55 226.62C180.423 226.108 180.518 225.214 180.836 223.936C181.154 222.658 182.075 220.262 183.6 216.747C185.125 213.233 186.428 210.549 187.508 208.696C188.589 206.843 190.05 205.245 191.893 203.903C193.736 202.561 195.801 201.347 198.089 200.261C200.376 199.175 202.95 198.216 205.809 197.386C208.669 196.555 211.02 195.948 212.863 195.565C214.706 195.181 216.326 194.957 217.724 194.894C218.423 194.862 219.17 194.854 219.964 194.87ZM230.401 195.852C230.973 195.916 231.704 196.267 232.594 196.906C233.483 197.545 234.341 197.961 235.167 198.152C235.993 198.344 236.883 198.664 237.836 199.111C238.789 199.558 240.378 200.485 242.602 201.891C244.826 203.296 247.209 205.469 249.751 208.408C252.292 211.348 253.881 213.456 254.517 214.734C255.152 216.012 255.533 217.13 255.66 218.089C255.724 218.568 255.788 219.047 255.851 219.527C255.565 219.495 255.279 219.463 254.993 219.431C254.421 219.367 253.277 218.824 251.562 217.802C249.846 216.779 248.448 216.172 247.368 215.98C246.287 215.788 244.953 215.373 243.364 214.734C241.776 214.095 240.6 213.712 239.838 213.584C239.075 213.456 237.677 212.945 235.644 212.051C233.61 211.156 232.244 210.325 231.545 209.559C230.846 208.792 230.338 207.929 230.02 206.971C229.702 206.012 229.385 204.191 229.067 201.507C228.749 198.823 228.749 197.194 229.067 196.619C229.385 196.044 229.829 195.788 230.401 195.852ZM239.838 227.386C239.456 227.386 238.789 227.706 237.836 228.345C236.883 228.984 236.311 229.814 236.12 230.837C235.93 231.859 235.898 232.722 236.025 233.425C236.152 234.128 236.406 234.767 236.788 235.342C237.169 235.917 237.55 236.3 237.931 236.492C238.313 236.684 238.853 236.811 239.552 236.875C240.251 236.939 240.823 236.811 241.267 236.492C241.712 236.172 242.062 235.789 242.316 235.342C242.57 234.894 242.761 234.032 242.888 232.754C243.015 231.476 242.951 230.485 242.697 229.783C242.443 229.08 241.998 228.505 241.363 228.057C240.727 227.61 240.219 227.386 239.838 227.386ZM207.62 229.303C207.112 229.303 206.572 229.367 206 229.495C205.428 229.623 204.92 230.038 204.475 230.741C204.03 231.444 203.808 232.498 203.808 233.904C203.808 235.31 204.094 236.396 204.666 237.163C205.237 237.93 205.714 238.377 206.095 238.505C206.477 238.633 206.858 238.665 207.239 238.601C207.62 238.537 208.002 238.345 208.383 238.026C208.764 237.706 209.145 236.811 209.527 235.342C209.908 233.872 210.035 232.626 209.908 231.604C209.781 230.581 209.495 229.942 209.05 229.687C208.605 229.431 208.129 229.303 207.62 229.303ZM226.684 239.751C225.286 239.687 224.269 239.815 223.634 240.134C222.998 240.454 222.553 240.805 222.299 241.189C222.045 241.572 221.918 242.051 221.918 242.626C221.918 243.201 222.236 243.681 222.871 244.064C223.507 244.448 223.856 244.799 223.92 245.118C223.983 245.438 223.952 246.013 223.824 246.844C223.697 247.674 223.348 248.441 222.776 249.144C222.204 249.847 221.283 250.262 220.012 250.39C218.741 250.518 217.756 250.358 217.057 249.911C216.358 249.463 215.881 249.08 215.627 248.761C215.373 248.441 215.309 247.611 215.436 246.269C215.564 244.927 215.373 244.032 214.865 243.585C214.356 243.137 213.816 242.914 213.244 242.914C212.672 242.914 212.196 243.042 211.814 243.297C211.433 243.553 211.179 243.84 211.052 244.16C210.925 244.479 210.861 245.214 210.861 246.365C210.861 247.515 211.052 248.601 211.433 249.623C211.814 250.646 212.418 251.572 213.244 252.403C214.07 253.234 214.801 253.809 215.436 254.128C216.072 254.448 217.057 254.671 218.391 254.799C219.726 254.927 220.679 255.694 221.251 257.1C221.823 258.505 222.299 259.432 222.681 259.879C223.062 260.326 223.602 260.742 224.301 261.125C225 261.509 225.763 261.732 226.589 261.796C227.415 261.86 228.336 261.445 229.353 260.55C230.369 259.655 231.1 258.889 231.545 258.25C231.99 257.611 232.403 256.94 232.784 256.237C233.165 255.534 233.356 254.895 233.356 254.32C233.356 253.745 233.61 253.393 234.119 253.266C234.627 253.138 235.104 252.914 235.548 252.595C235.993 252.275 236.788 251.444 237.931 250.103C239.075 248.761 239.838 247.611 240.219 246.652C240.6 245.693 240.823 244.671 240.886 243.585C240.95 242.499 240.823 241.732 240.505 241.285C240.187 240.837 239.615 240.677 238.789 240.805C237.963 240.933 237.423 241.157 237.169 241.476C236.915 241.796 236.66 242.53 236.406 243.681C236.152 244.831 235.803 245.789 235.358 246.556C234.913 247.323 234.341 247.994 233.642 248.569C232.943 249.144 232.276 249.432 231.64 249.432C231.005 249.432 230.528 249.368 230.211 249.24C229.893 249.112 229.575 248.857 229.257 248.473C228.94 248.09 228.781 247.451 228.781 246.556C228.781 245.662 228.717 245.118 228.59 244.927C228.463 244.735 228.4 244.543 228.4 244.352C228.4 244.16 228.749 243.713 229.448 243.01C230.147 242.307 230.433 241.732 230.306 241.285C230.179 240.837 229.893 240.486 229.448 240.23C229.003 239.974 228.082 239.815 226.684 239.751ZM226.493 251.349C226.747 251.349 227.002 251.54 227.256 251.924C227.51 252.307 227.923 252.627 228.495 252.882C229.067 253.138 229.289 253.489 229.162 253.937C229.035 254.384 228.59 255.119 227.828 256.141C227.065 257.163 226.557 257.643 226.303 257.579C226.049 257.515 225.667 256.908 225.159 255.758C224.65 254.607 224.428 253.841 224.492 253.457C224.555 253.074 224.841 252.627 225.349 252.115C225.858 251.604 226.239 251.349 226.493 251.349Z" fill="#000000" fill-rule="nonzero" opacity="1" stroke="none" vectornator:layerName="path"/>
<path d="M207.14 251.225C207.14 244.228 214.866 248.664 226.966 248.664C239.066 248.664 250.958 244.228 250.958 251.225C250.958 258.221 241.149 263.893 229.049 263.893C216.949 263.893 207.14 258.221 207.14 251.225Z" fill="#ffffff" fill-rule="nonzero" opacity="1" stroke="none" vectornator:layerName="path"/>
<path d="M208.15 247.277C208.15 244.386 210.434 242.042 213.251 242.042C216.069 242.042 218.353 244.386 218.353 247.277C218.353 250.169 216.069 252.512 213.251 252.512C210.434 252.512 208.15 250.169 208.15 247.277Z" fill="#ffffff" fill-rule="nonzero" opacity="1" stroke="none" vectornator:layerName="path"/>
<path d="M233.15 245.277C233.15 242.386 235.434 240.042 238.251 240.042C241.069 240.042 243.353 242.386 243.353 245.277C243.353 248.169 241.069 250.512 238.251 250.512C235.434 250.512 233.15 248.169 233.15 245.277Z" fill="#ffffff" fill-rule="nonzero" opacity="1" stroke="none" vectornator:layerName="path"/>
<path d="M250.634 230.59C243.594 230.573 240.574 228.602 234.974 226.278" fill="none" opacity="1" stroke="#000000" stroke-linecap="round" stroke-linejoin="round" stroke-width="4.05697" vectornator:layerName="path"/>
<path d="M197.389 232.747C204.345 231.667 207.033 229.263 212.219 226.121" fill="none" opacity="1" stroke="#000000" stroke-linecap="round" stroke-linejoin="round" stroke-width="4.05697" vectornator:layerName="path"/>
<path d="M219.937 252.25C221.404 251.427 222.777 250.025 223.971 248.69C224.183 248.453 225.714 247.169 225.573 246.583" fill="none" opacity="1" stroke="#000000" stroke-linecap="round" stroke-linejoin="round" stroke-width="3.81365" vectornator:layerName="path"/>
<path d="M233.744 251.994C232.144 251.192 230.6 249.666 229.25 248.198C229.01 247.937 227.309 246.578 227.416 245.839" fill="none" opacity="1" stroke="#000000" stroke-linecap="round" stroke-linejoin="round" stroke-width="3.81365" vectornator:layerName="path"/>
<path d="M203.804 234.397C203.804 231.832 205.718 229.752 208.078 229.752C210.439 229.752 212.353 231.832 212.353 234.397C212.353 236.963 210.439 239.042 208.078 239.042C205.718 239.042 203.804 236.963 203.804 234.397Z" fill="none" opacity="1" stroke="#000000" stroke-linecap="butt" stroke-linejoin="round" stroke-width="2" vectornator:layerName="path"/>
<path d="M237.15 233.632C237.15 231.49 238.986 229.752 241.251 229.752C243.517 229.752 245.353 231.49 245.353 233.632C245.353 235.775 243.517 237.512 241.251 237.512C238.986 237.512 237.15 235.775 237.15 233.632Z" fill="none" opacity="1" stroke="#000000" stroke-linecap="butt" stroke-linejoin="round" stroke-width="2" vectornator:layerName="path"/>
</g>
</g>
</g>
</svg>
